<svg width="293" height="95" viewBox="0 0 293 95" fill="none" xmlns="http://www.w3.org/2000/svg">
<g clip-path="url(#clip0_92_15)">
<path d="M52.2143 42.5357H15.3571C11.9646 42.5357 9.21429 44.9662 9.21429 47.9643V73.75C9.21429 79.7464 14.7148 84.6071 21.5 84.6071H46.0714C52.8566 84.6071 58.3571 79.7464 58.3571 73.75V47.9643C58.3571 44.9662 55.6069 42.5357 52.2143 42.5357Z" fill="#FDDC5C"/>
<path fill-rule="evenodd" clip-rule="evenodd" d="M20.9121 34.1794C18.9252 32.7747 18.6031 30.2126 20.1926 28.4568C20.8133 27.7711 21.0204 27.3689 21.0844 27.1907C21.0194 27.0853 20.8089 26.7817 20.1506 26.0322L20.0166 25.8806C19.2706 25.0398 17.7653 23.3433 17.3672 21.1036C16.8858 18.3957 18.0679 15.8752 20.1926 13.5282C21.7821 11.7723 24.6813 11.4876 26.6682 12.8923C28.6551 14.297 28.9772 16.8591 27.3877 18.615C26.767 19.3006 26.5599 19.7029 26.4959 19.881C26.5609 19.9864 26.7714 20.29 27.4298 21.0395L27.5637 21.1911C28.3098 22.0319 29.815 23.7284 30.2132 25.9681C30.6945 28.676 29.5124 31.1965 27.3877 33.5436C25.7982 35.2994 22.899 35.5841 20.9121 34.1794ZM26.4709 19.9912C26.4709 19.9912 26.4683 19.9733 26.479 19.934C26.479 19.9709 26.4709 19.9912 26.4709 19.9912ZM21.1094 27.0805C21.1094 27.0805 21.112 27.0984 21.1013 27.1378C21.1013 27.1008 21.1094 27.0805 21.1094 27.0805ZM15.3571 39.143C9.84417 39.143 5.375 43.0925 5.375 47.9644V73.75C5.375 81.6203 12.5944 88 21.5 88H46.0714C53.654 88 60.0142 83.3749 61.7363 77.1429H62.9643C73.1424 77.1429 81.3929 69.8517 81.3929 60.8573C81.3929 51.8629 73.1424 44.5716 62.9643 44.5716H61.4316C59.9271 41.3837 56.3668 39.143 52.2143 39.143H15.3571ZM62.1964 52.7144V69H62.9643C68.053 69 72.1786 65.3544 72.1786 60.8573C72.1786 56.3601 68.053 52.7144 62.9643 52.7144H62.1964ZM13.0536 47.9644C13.0536 46.8401 14.0849 45.9287 15.3571 45.9287H52.2143C53.4865 45.9287 54.5179 46.8401 54.5179 47.9644V73.75C54.5179 77.8725 50.7363 81.2143 46.0714 81.2143H21.5C16.8352 81.2143 13.0536 77.8725 13.0536 73.75V47.9644ZM40.1568 28.4568C38.5674 30.2126 38.8895 32.7747 40.8764 34.1794C42.8633 35.5841 45.7625 35.2994 47.352 33.5436C49.4767 31.1965 50.6588 28.676 50.1774 25.9681C49.7793 23.7284 48.2741 22.0319 47.528 21.1911L47.3941 21.0395C46.7357 20.29 46.5251 19.9864 46.4602 19.881C46.5242 19.7029 46.7313 19.3006 47.352 18.615C48.9415 16.8591 48.6194 14.297 46.6325 12.8923C44.6456 11.4876 41.7464 11.7723 40.1568 13.5282C38.0322 15.8752 36.8501 18.3957 37.3315 21.1036C37.7296 23.3433 39.2349 25.0398 39.9809 25.8806L40.1149 26.0322C40.7732 26.7817 40.9837 27.0853 41.0487 27.1907C40.9847 27.3689 40.7776 27.7711 40.1568 28.4568ZM46.4352 19.9912C46.4352 19.9912 46.4326 19.9733 46.4433 19.934C46.4433 19.9709 46.4352 19.9912 46.4352 19.9912ZM41.0737 27.0805C41.0737 27.0805 41.0763 27.0984 41.0656 27.1378C41.0656 27.1008 41.0737 27.0805 41.0737 27.0805Z" fill="#3F2305"/>
</g>
<path d="M104.668 42.624C102.761 42.624 101.149 42.312 99.832 41.688C98.5493 41.0293 97.4227 40.18 96.452 39.14L97.024 37.58V42H89.744V0.971998H96.972V23.176V20.836C97.8733 20.0733 99.0693 19.432 100.56 18.912C102.051 18.392 103.749 18.132 105.656 18.132C107.632 18.132 109.435 18.6 111.064 19.536C112.693 20.472 113.993 21.8413 114.964 23.644C115.969 25.412 116.472 27.5787 116.472 30.144C116.472 32.7093 115.917 34.928 114.808 36.8C113.733 38.672 112.295 40.1107 110.492 41.116C108.689 42.1213 106.748 42.624 104.668 42.624ZM103.056 36.488C104.131 36.488 105.119 36.2107 106.02 35.656C106.956 35.1013 107.701 34.3387 108.256 33.368C108.811 32.3973 109.088 31.3053 109.088 30.092C109.088 28.8787 108.811 27.804 108.256 26.868C107.701 25.932 106.956 25.204 106.02 24.684C105.119 24.1293 104.131 23.852 103.056 23.852C102.12 23.852 101.236 24.008 100.404 24.32C99.6067 24.5973 98.9133 25.0133 98.324 25.568C97.7693 26.088 97.336 26.7293 97.024 27.492V33.056C97.44 33.8187 97.9253 34.46 98.48 34.98C99.0693 35.4653 99.7453 35.8467 100.508 36.124C101.271 36.3667 102.12 36.488 103.056 36.488ZM133.373 42.624C130.6 42.624 128.243 42.104 126.301 41.064C124.395 40.024 122.939 38.5853 121.933 36.748C120.928 34.9107 120.425 32.796 120.425 30.404C120.425 28.116 121.015 26.0533 122.193 24.216C123.372 22.3787 124.949 20.9227 126.925 19.848C128.901 18.7387 131.103 18.184 133.529 18.184C136.788 18.184 139.457 19.1373 141.537 21.044C143.652 22.916 145.021 25.6373 145.645 29.208L127.965 34.824L126.353 30.872L139.145 26.556L137.637 27.232C137.36 26.3307 136.857 25.5507 136.129 24.892C135.436 24.1987 134.379 23.852 132.957 23.852C131.883 23.852 130.929 24.112 130.097 24.632C129.3 25.1173 128.676 25.828 128.225 26.764C127.809 27.6653 127.601 28.74 127.601 29.988C127.601 31.4093 127.861 32.6053 128.381 33.576C128.901 34.512 129.612 35.2227 130.513 35.708C131.415 36.1933 132.42 36.436 133.529 36.436C134.327 36.436 135.089 36.2973 135.817 36.02C136.58 35.7427 137.325 35.3787 138.053 34.928L141.277 40.336C140.064 41.0293 138.747 41.584 137.325 42C135.939 42.416 134.621 42.624 133.373 42.624ZM160.503 42.624C158.389 42.624 156.465 42.208 154.731 41.376C153.033 40.5093 151.681 39.192 150.675 37.424C149.67 35.656 149.167 33.4027 149.167 30.664C149.167 28.0987 149.687 25.88 150.727 24.008C151.767 22.136 153.137 20.6973 154.835 19.692C156.534 18.652 158.337 18.132 160.243 18.132C162.497 18.132 164.195 18.5133 165.339 19.276C166.518 20.004 167.489 20.8187 168.251 21.72L167.939 22.604L168.615 19.276H175.375V42H168.095V37.06L168.667 38.62C168.598 38.62 168.39 38.828 168.043 39.244C167.697 39.6253 167.177 40.0933 166.483 40.648C165.825 41.168 164.993 41.6187 163.987 42C163.017 42.416 161.855 42.624 160.503 42.624ZM162.583 36.696C163.45 36.696 164.23 36.5747 164.923 36.332C165.617 36.0547 166.223 35.6733 166.743 35.188C167.263 34.668 167.714 34.0267 168.095 33.264V27.7C167.818 26.9373 167.402 26.296 166.847 25.776C166.293 25.2213 165.634 24.8053 164.871 24.528C164.109 24.216 163.259 24.06 162.323 24.06C161.283 24.06 160.313 24.3373 159.411 24.892C158.545 25.412 157.851 26.14 157.331 27.076C156.811 28.012 156.551 29.0867 156.551 30.3C156.551 31.5133 156.829 32.6053 157.383 33.576C157.938 34.5467 158.666 35.3093 159.567 35.864C160.503 36.4187 161.509 36.696 162.583 36.696ZM189.481 19.276L190.053 23.332L189.949 22.968C190.746 21.5467 191.873 20.4027 193.329 19.536C194.785 18.6347 196.57 18.184 198.685 18.184C200.834 18.184 202.619 18.8253 204.041 20.108C205.497 21.356 206.242 22.9853 206.277 24.996V42H198.997V27.7C198.962 26.6947 198.685 25.8973 198.165 25.308C197.679 24.684 196.847 24.372 195.669 24.372C194.559 24.372 193.589 24.736 192.757 25.464C191.925 26.192 191.283 27.18 190.833 28.428C190.382 29.676 190.157 31.1147 190.157 32.744V42H182.877V19.276H189.481ZM214.792 12.932L211.048 11.476C211.81 10.7827 212.434 9.77733 212.92 8.46C213.405 7.14266 213.526 5.87733 213.284 4.664L218.848 4.3C219.056 5.27067 218.969 6.34533 218.588 7.524C218.241 8.70267 217.721 9.77733 217.028 10.748C216.369 11.7187 215.624 12.4467 214.792 12.932ZM231.394 42.468C229.522 42.468 227.771 42.1387 226.142 41.48C224.547 40.8213 223.195 39.9027 222.086 38.724L225.102 34.72C226.211 35.7253 227.234 36.4533 228.17 36.904C229.14 37.32 230.007 37.528 230.77 37.528C231.359 37.528 231.879 37.476 232.33 37.372C232.815 37.2333 233.196 37.0427 233.474 36.8C233.751 36.5227 233.89 36.176 233.89 35.76C233.89 35.1707 233.647 34.7027 233.162 34.356C232.711 34.0093 232.122 33.732 231.394 33.524C230.666 33.2813 229.886 33.0387 229.054 32.796C226.974 32.1373 225.466 31.184 224.53 29.936C223.628 28.6533 223.178 27.2667 223.178 25.776C223.178 24.632 223.472 23.488 224.062 22.344C224.686 21.1653 225.656 20.1947 226.974 19.432C228.326 18.6347 230.059 18.236 232.174 18.236C234.08 18.236 235.692 18.4267 237.01 18.808C238.327 19.1893 239.575 19.8133 240.754 20.68L237.998 24.944C237.339 24.424 236.594 23.9907 235.762 23.644C234.964 23.2627 234.219 23.0547 233.526 23.02C232.902 22.9853 232.364 23.0547 231.914 23.228C231.498 23.4013 231.168 23.6267 230.926 23.904C230.683 24.1813 230.562 24.476 230.562 24.788C230.527 25.4467 230.77 25.9667 231.29 26.348C231.844 26.7293 232.538 27.024 233.37 27.232C234.202 27.44 235.016 27.6827 235.814 27.96C236.923 28.3067 237.876 28.7747 238.674 29.364C239.471 29.9533 240.078 30.664 240.494 31.496C240.944 32.2933 241.17 33.264 241.17 34.408C241.17 35.7947 240.806 37.112 240.078 38.36C239.384 39.5733 238.31 40.5613 236.854 41.324C235.432 42.0867 233.612 42.468 231.394 42.468ZM159.766 91.972C158.761 92.7693 157.496 93.4107 155.97 93.896C154.48 94.3813 153.006 94.624 151.55 94.624C148.95 94.624 146.68 94.156 144.738 93.22C142.832 92.2493 141.341 90.88 140.266 89.112C139.226 87.3093 138.706 85.1427 138.706 82.612C138.706 80.0813 139.278 77.932 140.422 76.164C141.566 74.3613 143.057 72.992 144.894 72.056C146.766 71.12 148.725 70.652 150.77 70.652C152.816 70.652 154.584 70.9293 156.074 71.484C157.6 72.0387 158.9 72.7667 159.974 73.668L156.438 78.348C155.953 77.9667 155.277 77.5853 154.41 77.204C153.578 76.788 152.59 76.58 151.446 76.58C150.441 76.58 149.522 76.84 148.69 77.36C147.858 77.88 147.2 78.5907 146.714 79.492C146.229 80.3933 145.986 81.4333 145.986 82.612C145.986 83.7213 146.246 84.744 146.766 85.68C147.286 86.616 147.997 87.3613 148.898 87.916C149.834 88.436 150.926 88.696 152.174 88.696C152.972 88.696 153.7 88.592 154.358 88.384C155.052 88.1413 155.641 87.812 156.126 87.396L159.766 91.972ZM163.589 82.352C163.589 80.0293 164.127 77.9493 165.201 76.112C166.311 74.2747 167.853 72.836 169.829 71.796C171.805 70.7213 174.076 70.184 176.641 70.184C179.241 70.184 181.495 70.7213 183.401 71.796C185.308 72.836 186.764 74.2747 187.769 76.112C188.809 77.9493 189.329 80.0293 189.329 82.352C189.329 84.6747 188.809 86.772 187.769 88.644C186.764 90.4813 185.308 91.9373 183.401 93.012C181.495 94.0867 179.207 94.624 176.537 94.624C174.041 94.624 171.805 94.1387 169.829 93.168C167.888 92.1973 166.363 90.7933 165.253 88.956C164.144 87.1187 163.589 84.9173 163.589 82.352ZM170.921 82.404C170.921 83.5827 171.164 84.6573 171.649 85.628C172.135 86.564 172.793 87.3093 173.625 87.864C174.457 88.4187 175.393 88.696 176.433 88.696C177.577 88.696 178.565 88.4187 179.397 87.864C180.229 87.3093 180.871 86.564 181.321 85.628C181.772 84.6573 181.997 83.5827 181.997 82.404C181.997 81.1907 181.772 80.116 181.321 79.18C180.871 78.244 180.229 77.4987 179.397 76.944C178.565 76.3893 177.577 76.112 176.433 76.112C175.393 76.112 174.457 76.3893 173.625 76.944C172.793 77.4987 172.135 78.244 171.649 79.18C171.164 80.116 170.921 81.1907 170.921 82.404ZM197.248 94V77.62H193.4V71.172H197.248V63.268C197.248 60.2867 198.098 57.86 199.796 55.988C201.53 54.0813 204.026 53.128 207.284 53.128C208.255 53.128 209.33 53.284 210.508 53.596C211.722 53.8733 212.779 54.3413 213.68 55L210.612 60.252C210.266 59.8013 209.85 59.5067 209.364 59.368C208.914 59.1947 208.48 59.108 208.064 59.108C207.024 59.108 206.175 59.4547 205.516 60.148C204.858 60.8413 204.528 61.9507 204.528 63.476V71.172H211.392V77.62H204.528V94H197.248ZM214.044 94V77.62H210.196V71.172H214.044V63.268C214.044 60.2867 214.894 57.86 216.592 55.988C218.326 54.0813 220.822 53.128 224.08 53.128C225.051 53.128 226.126 53.284 227.304 53.596C228.518 53.8733 229.575 54.3413 230.476 55L227.408 60.252C227.062 59.8013 226.646 59.5067 226.16 59.368C225.71 59.1947 225.276 59.108 224.86 59.108C223.82 59.108 222.971 59.4547 222.312 60.148C221.654 60.8413 221.324 61.9507 221.324 63.476V71.172H228.188V77.62H221.324V94H214.044ZM245.143 94.624C242.369 94.624 240.012 94.104 238.071 93.064C236.164 92.024 234.708 90.5853 233.703 88.748C232.697 86.9107 232.195 84.796 232.195 82.404C232.195 80.116 232.784 78.0533 233.963 76.216C235.141 74.3787 236.719 72.9227 238.695 71.848C240.671 70.7387 242.872 70.184 245.299 70.184C248.557 70.184 251.227 71.1373 253.307 73.044C255.421 74.916 256.791 77.6373 257.415 81.208L239.735 86.824L238.123 82.872L250.915 78.556L249.407 79.232C249.129 78.3307 248.627 77.5507 247.899 76.892C247.205 76.1987 246.148 75.852 244.727 75.852C243.652 75.852 242.699 76.112 241.867 76.632C241.069 77.1173 240.445 77.828 239.995 78.764C239.579 79.6653 239.371 80.74 239.371 81.988C239.371 83.4093 239.631 84.6053 240.151 85.576C240.671 86.512 241.381 87.2227 242.283 87.708C243.184 88.1933 244.189 88.436 245.299 88.436C246.096 88.436 246.859 88.2973 247.587 88.02C248.349 87.7427 249.095 87.3787 249.823 86.928L253.047 92.336C251.833 93.0293 250.516 93.584 249.095 94C247.708 94.416 246.391 94.624 245.143 94.624ZM273.885 94.624C271.112 94.624 268.754 94.104 266.813 93.064C264.906 92.024 263.45 90.5853 262.445 88.748C261.44 86.9107 260.937 84.796 260.937 82.404C260.937 80.116 261.526 78.0533 262.705 76.216C263.884 74.3787 265.461 72.9227 267.437 71.848C269.413 70.7387 271.614 70.184 274.041 70.184C277.3 70.184 279.969 71.1373 282.049 73.044C284.164 74.916 285.533 77.6373 286.157 81.208L268.477 86.824L266.865 82.872L279.657 78.556L278.149 79.232C277.872 78.3307 277.369 77.5507 276.641 76.892C275.948 76.1987 274.89 75.852 273.469 75.852C272.394 75.852 271.441 76.112 270.609 76.632C269.812 77.1173 269.188 77.828 268.737 78.764C268.321 79.6653 268.113 80.74 268.113 81.988C268.113 83.4093 268.373 84.6053 268.893 85.576C269.413 86.512 270.124 87.2227 271.025 87.708C271.926 88.1933 272.932 88.436 274.041 88.436C274.838 88.436 275.601 88.2973 276.329 88.02C277.092 87.7427 277.837 87.3787 278.565 86.928L281.789 92.336C280.576 93.0293 279.258 93.584 277.837 94C276.45 94.416 275.133 94.624 273.885 94.624Z" fill="#3F2305"/>
<defs>
<clipPath id="clip0_92_15">
<rect width="86" height="76" fill="white" transform="translate(0 12)"/>
</clipPath>
</defs>
</svg>
