<svg width="293" height="97" viewBox="0 0 293 97" fill="none" xmlns="http://www.w3.org/2000/svg">
<g clip-path="url(#clip0_92_15)">
<path d="M52.2143 43.5357H15.3571C11.9646 43.5357 9.21429 45.9662 9.21429 48.9643V74.75C9.21429 80.7464 14.7148 85.6071 21.5 85.6071H46.0714C52.8566 85.6071 58.3571 80.7464 58.3571 74.75V48.9643C58.3571 45.9662 55.6069 43.5357 52.2143 43.5357Z" fill="#FDDC5C"/>
<path fill-rule="evenodd" clip-rule="evenodd" d="M20.9121 35.1794C18.9252 33.7747 18.6031 31.2126 20.1926 29.4568C20.8133 28.7711 21.0204 28.3689 21.0844 28.1907C21.0194 28.0853 20.8089 27.7817 20.1506 27.0322L20.0166 26.8806C19.2706 26.0398 17.7653 24.3433 17.3672 22.1036C16.8858 19.3957 18.0679 16.8752 20.1926 14.5282C21.7821 12.7723 24.6813 12.4876 26.6682 13.8923C28.6551 15.297 28.9772 17.8591 27.3877 19.615C26.767 20.3006 26.5599 20.7029 26.4959 20.881C26.5609 20.9864 26.7714 21.29 27.4298 22.0395L27.5637 22.1911C28.3098 23.0319 29.815 24.7284 30.2132 26.9681C30.6945 29.676 29.5124 32.1965 27.3877 34.5436C25.7982 36.2994 22.899 36.5841 20.9121 35.1794ZM26.4709 20.9912C26.4709 20.9912 26.4683 20.9733 26.479 20.934C26.479 20.9709 26.4709 20.9912 26.4709 20.9912ZM21.1094 28.0805C21.1094 28.0805 21.112 28.0984 21.1013 28.1378C21.1013 28.1008 21.1094 28.0805 21.1094 28.0805ZM15.3571 40.143C9.84417 40.143 5.375 44.0925 5.375 48.9644V74.75C5.375 82.6203 12.5944 89 21.5 89H46.0714C53.654 89 60.0142 84.3749 61.7363 78.1429H62.9643C73.1424 78.1429 81.3929 70.8517 81.3929 61.8573C81.3929 52.8629 73.1424 45.5716 62.9643 45.5716H61.4316C59.9271 42.3837 56.3668 40.143 52.2143 40.143H15.3571ZM62.1964 53.7144V70H62.9643C68.053 70 72.1786 66.3544 72.1786 61.8573C72.1786 57.3601 68.053 53.7144 62.9643 53.7144H62.1964ZM13.0536 48.9644C13.0536 47.8401 14.0849 46.9287 15.3571 46.9287H52.2143C53.4865 46.9287 54.5179 47.8401 54.5179 48.9644V74.75C54.5179 78.8725 50.7363 82.2143 46.0714 82.2143H21.5C16.8352 82.2143 13.0536 78.8725 13.0536 74.75V48.9644ZM40.1568 29.4568C38.5674 31.2126 38.8895 33.7747 40.8764 35.1794C42.8633 36.5841 45.7625 36.2994 47.352 34.5436C49.4767 32.1965 50.6588 29.676 50.1774 26.9681C49.7793 24.7284 48.2741 23.0319 47.528 22.1911L47.3941 22.0395C46.7357 21.29 46.5251 20.9864 46.4602 20.881C46.5242 20.7029 46.7313 20.3006 47.352 19.615C48.9415 17.8591 48.6194 15.297 46.6325 13.8923C44.6456 12.4876 41.7464 12.7723 40.1568 14.5282C38.0322 16.8752 36.8501 19.3957 37.3315 22.1036C37.7296 24.3433 39.2349 26.0398 39.9809 26.8806L40.1149 27.0322C40.7732 27.7817 40.9837 28.0853 41.0487 28.1907C40.9847 28.3689 40.7776 28.7711 40.1568 29.4568ZM46.4352 20.9912C46.4352 20.9912 46.4326 20.9733 46.4433 20.934C46.4433 20.9709 46.4352 20.9912 46.4352 20.9912ZM41.0737 28.0805C41.0737 28.0805 41.0763 28.0984 41.0656 28.1378C41.0656 28.1008 41.0737 28.0805 41.0737 28.0805Z" fill="#3F2305"/>
</g>
<mask id="path-2-outside-1_92_15" maskUnits="userSpaceOnUse" x="88" y="0" width="200" height="97" fill="black">
<rect fill="white" x="88" width="200" height="97"/>
<path d="M104.668 43.624C102.761 43.624 101.149 43.312 99.832 42.688C98.5493 42.0293 97.4227 41.18 96.452 40.14L97.024 38.58V43H89.744V1.972H96.972V24.176V21.836C97.8733 21.0733 99.0693 20.432 100.56 19.912C102.051 19.392 103.749 19.132 105.656 19.132C107.632 19.132 109.435 19.6 111.064 20.536C112.693 21.472 113.993 22.8413 114.964 24.644C115.969 26.412 116.472 28.5787 116.472 31.144C116.472 33.7093 115.917 35.928 114.808 37.8C113.733 39.672 112.295 41.1107 110.492 42.116C108.689 43.1213 106.748 43.624 104.668 43.624ZM103.056 37.488C104.131 37.488 105.119 37.2107 106.02 36.656C106.956 36.1013 107.701 35.3387 108.256 34.368C108.811 33.3973 109.088 32.3053 109.088 31.092C109.088 29.8787 108.811 28.804 108.256 27.868C107.701 26.932 106.956 26.204 106.02 25.684C105.119 25.1293 104.131 24.852 103.056 24.852C102.12 24.852 101.236 25.008 100.404 25.32C99.6067 25.5973 98.9133 26.0133 98.324 26.568C97.7693 27.088 97.336 27.7293 97.024 28.492V34.056C97.44 34.8187 97.9253 35.46 98.48 35.98C99.0693 36.4653 99.7453 36.8467 100.508 37.124C101.271 37.3667 102.12 37.488 103.056 37.488ZM133.373 43.624C130.6 43.624 128.243 43.104 126.301 42.064C124.395 41.024 122.939 39.5853 121.933 37.748C120.928 35.9107 120.425 33.796 120.425 31.404C120.425 29.116 121.015 27.0533 122.193 25.216C123.372 23.3787 124.949 21.9227 126.925 20.848C128.901 19.7387 131.103 19.184 133.529 19.184C136.788 19.184 139.457 20.1373 141.537 22.044C143.652 23.916 145.021 26.6373 145.645 30.208L127.965 35.824L126.353 31.872L139.145 27.556L137.637 28.232C137.36 27.3307 136.857 26.5507 136.129 25.892C135.436 25.1987 134.379 24.852 132.957 24.852C131.883 24.852 130.929 25.112 130.097 25.632C129.3 26.1173 128.676 26.828 128.225 27.764C127.809 28.6653 127.601 29.74 127.601 30.988C127.601 32.4093 127.861 33.6053 128.381 34.576C128.901 35.512 129.612 36.2227 130.513 36.708C131.415 37.1933 132.42 37.436 133.529 37.436C134.327 37.436 135.089 37.2973 135.817 37.02C136.58 36.7427 137.325 36.3787 138.053 35.928L141.277 41.336C140.064 42.0293 138.747 42.584 137.325 43C135.939 43.416 134.621 43.624 133.373 43.624ZM160.503 43.624C158.389 43.624 156.465 43.208 154.731 42.376C153.033 41.5093 151.681 40.192 150.675 38.424C149.67 36.656 149.167 34.4027 149.167 31.664C149.167 29.0987 149.687 26.88 150.727 25.008C151.767 23.136 153.137 21.6973 154.835 20.692C156.534 19.652 158.337 19.132 160.243 19.132C162.497 19.132 164.195 19.5133 165.339 20.276C166.518 21.004 167.489 21.8187 168.251 22.72L167.939 23.604L168.615 20.276H175.375V43H168.095V38.06L168.667 39.62C168.598 39.62 168.39 39.828 168.043 40.244C167.697 40.6253 167.177 41.0933 166.483 41.648C165.825 42.168 164.993 42.6187 163.987 43C163.017 43.416 161.855 43.624 160.503 43.624ZM162.583 37.696C163.45 37.696 164.23 37.5747 164.923 37.332C165.617 37.0547 166.223 36.6733 166.743 36.188C167.263 35.668 167.714 35.0267 168.095 34.264V28.7C167.818 27.9373 167.402 27.296 166.847 26.776C166.293 26.2213 165.634 25.8053 164.871 25.528C164.109 25.216 163.259 25.06 162.323 25.06C161.283 25.06 160.313 25.3373 159.411 25.892C158.545 26.412 157.851 27.14 157.331 28.076C156.811 29.012 156.551 30.0867 156.551 31.3C156.551 32.5133 156.829 33.6053 157.383 34.576C157.938 35.5467 158.666 36.3093 159.567 36.864C160.503 37.4187 161.509 37.696 162.583 37.696ZM189.481 20.276L190.053 24.332L189.949 23.968C190.746 22.5467 191.873 21.4027 193.329 20.536C194.785 19.6347 196.57 19.184 198.685 19.184C200.834 19.184 202.619 19.8253 204.041 21.108C205.497 22.356 206.242 23.9853 206.277 25.996V43H198.997V28.7C198.962 27.6947 198.685 26.8973 198.165 26.308C197.679 25.684 196.847 25.372 195.669 25.372C194.559 25.372 193.589 25.736 192.757 26.464C191.925 27.192 191.283 28.18 190.833 29.428C190.382 30.676 190.157 32.1147 190.157 33.744V43H182.877V20.276H189.481ZM214.792 13.932L211.048 12.476C211.81 11.7827 212.434 10.7773 212.92 9.46C213.405 8.14266 213.526 6.87733 213.284 5.664L218.848 5.3C219.056 6.27067 218.969 7.34533 218.588 8.524C218.241 9.70267 217.721 10.7773 217.028 11.748C216.369 12.7187 215.624 13.4467 214.792 13.932ZM231.394 43.468C229.522 43.468 227.771 43.1387 226.142 42.48C224.547 41.8213 223.195 40.9027 222.086 39.724L225.102 35.72C226.211 36.7253 227.234 37.4533 228.17 37.904C229.14 38.32 230.007 38.528 230.77 38.528C231.359 38.528 231.879 38.476 232.33 38.372C232.815 38.2333 233.196 38.0427 233.474 37.8C233.751 37.5227 233.89 37.176 233.89 36.76C233.89 36.1707 233.647 35.7027 233.162 35.356C232.711 35.0093 232.122 34.732 231.394 34.524C230.666 34.2813 229.886 34.0387 229.054 33.796C226.974 33.1373 225.466 32.184 224.53 30.936C223.628 29.6533 223.178 28.2667 223.178 26.776C223.178 25.632 223.472 24.488 224.062 23.344C224.686 22.1653 225.656 21.1947 226.974 20.432C228.326 19.6347 230.059 19.236 232.174 19.236C234.08 19.236 235.692 19.4267 237.01 19.808C238.327 20.1893 239.575 20.8133 240.754 21.68L237.998 25.944C237.339 25.424 236.594 24.9907 235.762 24.644C234.964 24.2627 234.219 24.0547 233.526 24.02C232.902 23.9853 232.364 24.0547 231.914 24.228C231.498 24.4013 231.168 24.6267 230.926 24.904C230.683 25.1813 230.562 25.476 230.562 25.788C230.527 26.4467 230.77 26.9667 231.29 27.348C231.844 27.7293 232.538 28.024 233.37 28.232C234.202 28.44 235.016 28.6827 235.814 28.96C236.923 29.3067 237.876 29.7747 238.674 30.364C239.471 30.9533 240.078 31.664 240.494 32.496C240.944 33.2933 241.17 34.264 241.17 35.408C241.17 36.7947 240.806 38.112 240.078 39.36C239.384 40.5733 238.31 41.5613 236.854 42.324C235.432 43.0867 233.612 43.468 231.394 43.468ZM159.766 92.972C158.761 93.7693 157.496 94.4107 155.97 94.896C154.48 95.3813 153.006 95.624 151.55 95.624C148.95 95.624 146.68 95.156 144.738 94.22C142.832 93.2493 141.341 91.88 140.266 90.112C139.226 88.3093 138.706 86.1427 138.706 83.612C138.706 81.0813 139.278 78.932 140.422 77.164C141.566 75.3613 143.057 73.992 144.894 73.056C146.766 72.12 148.725 71.652 150.77 71.652C152.816 71.652 154.584 71.9293 156.074 72.484C157.6 73.0387 158.9 73.7667 159.974 74.668L156.438 79.348C155.953 78.9667 155.277 78.5853 154.41 78.204C153.578 77.788 152.59 77.58 151.446 77.58C150.441 77.58 149.522 77.84 148.69 78.36C147.858 78.88 147.2 79.5907 146.714 80.492C146.229 81.3933 145.986 82.4333 145.986 83.612C145.986 84.7213 146.246 85.744 146.766 86.68C147.286 87.616 147.997 88.3613 148.898 88.916C149.834 89.436 150.926 89.696 152.174 89.696C152.972 89.696 153.7 89.592 154.358 89.384C155.052 89.1413 155.641 88.812 156.126 88.396L159.766 92.972ZM163.589 83.352C163.589 81.0293 164.127 78.9493 165.201 77.112C166.311 75.2747 167.853 73.836 169.829 72.796C171.805 71.7213 174.076 71.184 176.641 71.184C179.241 71.184 181.495 71.7213 183.401 72.796C185.308 73.836 186.764 75.2747 187.769 77.112C188.809 78.9493 189.329 81.0293 189.329 83.352C189.329 85.6747 188.809 87.772 187.769 89.644C186.764 91.4813 185.308 92.9373 183.401 94.012C181.495 95.0867 179.207 95.624 176.537 95.624C174.041 95.624 171.805 95.1387 169.829 94.168C167.888 93.1973 166.363 91.7933 165.253 89.956C164.144 88.1187 163.589 85.9173 163.589 83.352ZM170.921 83.404C170.921 84.5827 171.164 85.6573 171.649 86.628C172.135 87.564 172.793 88.3093 173.625 88.864C174.457 89.4187 175.393 89.696 176.433 89.696C177.577 89.696 178.565 89.4187 179.397 88.864C180.229 88.3093 180.871 87.564 181.321 86.628C181.772 85.6573 181.997 84.5827 181.997 83.404C181.997 82.1907 181.772 81.116 181.321 80.18C180.871 79.244 180.229 78.4987 179.397 77.944C178.565 77.3893 177.577 77.112 176.433 77.112C175.393 77.112 174.457 77.3893 173.625 77.944C172.793 78.4987 172.135 79.244 171.649 80.18C171.164 81.116 170.921 82.1907 170.921 83.404ZM197.248 95V78.62H193.4V72.172H197.248V64.268C197.248 61.2867 198.098 58.86 199.796 56.988C201.53 55.0813 204.026 54.128 207.284 54.128C208.255 54.128 209.33 54.284 210.508 54.596C211.722 54.8733 212.779 55.3413 213.68 56L210.612 61.252C210.266 60.8013 209.85 60.5067 209.364 60.368C208.914 60.1947 208.48 60.108 208.064 60.108C207.024 60.108 206.175 60.4547 205.516 61.148C204.858 61.8413 204.528 62.9507 204.528 64.476V72.172H211.392V78.62H204.528V95H197.248ZM214.044 95V78.62H210.196V72.172H214.044V64.268C214.044 61.2867 214.894 58.86 216.592 56.988C218.326 55.0813 220.822 54.128 224.08 54.128C225.051 54.128 226.126 54.284 227.304 54.596C228.518 54.8733 229.575 55.3413 230.476 56L227.408 61.252C227.062 60.8013 226.646 60.5067 226.16 60.368C225.71 60.1947 225.276 60.108 224.86 60.108C223.82 60.108 222.971 60.4547 222.312 61.148C221.654 61.8413 221.324 62.9507 221.324 64.476V72.172H228.188V78.62H221.324V95H214.044ZM245.143 95.624C242.369 95.624 240.012 95.104 238.071 94.064C236.164 93.024 234.708 91.5853 233.703 89.748C232.697 87.9107 232.195 85.796 232.195 83.404C232.195 81.116 232.784 79.0533 233.963 77.216C235.141 75.3787 236.719 73.9227 238.695 72.848C240.671 71.7387 242.872 71.184 245.299 71.184C248.557 71.184 251.227 72.1373 253.307 74.044C255.421 75.916 256.791 78.6373 257.415 82.208L239.735 87.824L238.123 83.872L250.915 79.556L249.407 80.232C249.129 79.3307 248.627 78.5507 247.899 77.892C247.205 77.1987 246.148 76.852 244.727 76.852C243.652 76.852 242.699 77.112 241.867 77.632C241.069 78.1173 240.445 78.828 239.995 79.764C239.579 80.6653 239.371 81.74 239.371 82.988C239.371 84.4093 239.631 85.6053 240.151 86.576C240.671 87.512 241.381 88.2227 242.283 88.708C243.184 89.1933 244.189 89.436 245.299 89.436C246.096 89.436 246.859 89.2973 247.587 89.02C248.349 88.7427 249.095 88.3787 249.823 87.928L253.047 93.336C251.833 94.0293 250.516 94.584 249.095 95C247.708 95.416 246.391 95.624 245.143 95.624ZM273.885 95.624C271.112 95.624 268.754 95.104 266.813 94.064C264.906 93.024 263.45 91.5853 262.445 89.748C261.44 87.9107 260.937 85.796 260.937 83.404C260.937 81.116 261.526 79.0533 262.705 77.216C263.884 75.3787 265.461 73.9227 267.437 72.848C269.413 71.7387 271.614 71.184 274.041 71.184C277.3 71.184 279.969 72.1373 282.049 74.044C284.164 75.916 285.533 78.6373 286.157 82.208L268.477 87.824L266.865 83.872L279.657 79.556L278.149 80.232C277.872 79.3307 277.369 78.5507 276.641 77.892C275.948 77.1987 274.89 76.852 273.469 76.852C272.394 76.852 271.441 77.112 270.609 77.632C269.812 78.1173 269.188 78.828 268.737 79.764C268.321 80.6653 268.113 81.74 268.113 82.988C268.113 84.4093 268.373 85.6053 268.893 86.576C269.413 87.512 270.124 88.2227 271.025 88.708C271.926 89.1933 272.932 89.436 274.041 89.436C274.838 89.436 275.601 89.2973 276.329 89.02C277.092 88.7427 277.837 88.3787 278.565 87.928L281.789 93.336C280.576 94.0293 279.258 94.584 277.837 95C276.45 95.416 275.133 95.624 273.885 95.624Z"/>
</mask>
<path d="M104.668 43.624C102.761 43.624 101.149 43.312 99.832 42.688C98.5493 42.0293 97.4227 41.18 96.452 40.14L97.024 38.58V43H89.744V1.972H96.972V24.176V21.836C97.8733 21.0733 99.0693 20.432 100.56 19.912C102.051 19.392 103.749 19.132 105.656 19.132C107.632 19.132 109.435 19.6 111.064 20.536C112.693 21.472 113.993 22.8413 114.964 24.644C115.969 26.412 116.472 28.5787 116.472 31.144C116.472 33.7093 115.917 35.928 114.808 37.8C113.733 39.672 112.295 41.1107 110.492 42.116C108.689 43.1213 106.748 43.624 104.668 43.624ZM103.056 37.488C104.131 37.488 105.119 37.2107 106.02 36.656C106.956 36.1013 107.701 35.3387 108.256 34.368C108.811 33.3973 109.088 32.3053 109.088 31.092C109.088 29.8787 108.811 28.804 108.256 27.868C107.701 26.932 106.956 26.204 106.02 25.684C105.119 25.1293 104.131 24.852 103.056 24.852C102.12 24.852 101.236 25.008 100.404 25.32C99.6067 25.5973 98.9133 26.0133 98.324 26.568C97.7693 27.088 97.336 27.7293 97.024 28.492V34.056C97.44 34.8187 97.9253 35.46 98.48 35.98C99.0693 36.4653 99.7453 36.8467 100.508 37.124C101.271 37.3667 102.12 37.488 103.056 37.488ZM133.373 43.624C130.6 43.624 128.243 43.104 126.301 42.064C124.395 41.024 122.939 39.5853 121.933 37.748C120.928 35.9107 120.425 33.796 120.425 31.404C120.425 29.116 121.015 27.0533 122.193 25.216C123.372 23.3787 124.949 21.9227 126.925 20.848C128.901 19.7387 131.103 19.184 133.529 19.184C136.788 19.184 139.457 20.1373 141.537 22.044C143.652 23.916 145.021 26.6373 145.645 30.208L127.965 35.824L126.353 31.872L139.145 27.556L137.637 28.232C137.36 27.3307 136.857 26.5507 136.129 25.892C135.436 25.1987 134.379 24.852 132.957 24.852C131.883 24.852 130.929 25.112 130.097 25.632C129.3 26.1173 128.676 26.828 128.225 27.764C127.809 28.6653 127.601 29.74 127.601 30.988C127.601 32.4093 127.861 33.6053 128.381 34.576C128.901 35.512 129.612 36.2227 130.513 36.708C131.415 37.1933 132.42 37.436 133.529 37.436C134.327 37.436 135.089 37.2973 135.817 37.02C136.58 36.7427 137.325 36.3787 138.053 35.928L141.277 41.336C140.064 42.0293 138.747 42.584 137.325 43C135.939 43.416 134.621 43.624 133.373 43.624ZM160.503 43.624C158.389 43.624 156.465 43.208 154.731 42.376C153.033 41.5093 151.681 40.192 150.675 38.424C149.67 36.656 149.167 34.4027 149.167 31.664C149.167 29.0987 149.687 26.88 150.727 25.008C151.767 23.136 153.137 21.6973 154.835 20.692C156.534 19.652 158.337 19.132 160.243 19.132C162.497 19.132 164.195 19.5133 165.339 20.276C166.518 21.004 167.489 21.8187 168.251 22.72L167.939 23.604L168.615 20.276H175.375V43H168.095V38.06L168.667 39.62C168.598 39.62 168.39 39.828 168.043 40.244C167.697 40.6253 167.177 41.0933 166.483 41.648C165.825 42.168 164.993 42.6187 163.987 43C163.017 43.416 161.855 43.624 160.503 43.624ZM162.583 37.696C163.45 37.696 164.23 37.5747 164.923 37.332C165.617 37.0547 166.223 36.6733 166.743 36.188C167.263 35.668 167.714 35.0267 168.095 34.264V28.7C167.818 27.9373 167.402 27.296 166.847 26.776C166.293 26.2213 165.634 25.8053 164.871 25.528C164.109 25.216 163.259 25.06 162.323 25.06C161.283 25.06 160.313 25.3373 159.411 25.892C158.545 26.412 157.851 27.14 157.331 28.076C156.811 29.012 156.551 30.0867 156.551 31.3C156.551 32.5133 156.829 33.6053 157.383 34.576C157.938 35.5467 158.666 36.3093 159.567 36.864C160.503 37.4187 161.509 37.696 162.583 37.696ZM189.481 20.276L190.053 24.332L189.949 23.968C190.746 22.5467 191.873 21.4027 193.329 20.536C194.785 19.6347 196.57 19.184 198.685 19.184C200.834 19.184 202.619 19.8253 204.041 21.108C205.497 22.356 206.242 23.9853 206.277 25.996V43H198.997V28.7C198.962 27.6947 198.685 26.8973 198.165 26.308C197.679 25.684 196.847 25.372 195.669 25.372C194.559 25.372 193.589 25.736 192.757 26.464C191.925 27.192 191.283 28.18 190.833 29.428C190.382 30.676 190.157 32.1147 190.157 33.744V43H182.877V20.276H189.481ZM214.792 13.932L211.048 12.476C211.81 11.7827 212.434 10.7773 212.92 9.46C213.405 8.14266 213.526 6.87733 213.284 5.664L218.848 5.3C219.056 6.27067 218.969 7.34533 218.588 8.524C218.241 9.70267 217.721 10.7773 217.028 11.748C216.369 12.7187 215.624 13.4467 214.792 13.932ZM231.394 43.468C229.522 43.468 227.771 43.1387 226.142 42.48C224.547 41.8213 223.195 40.9027 222.086 39.724L225.102 35.72C226.211 36.7253 227.234 37.4533 228.17 37.904C229.14 38.32 230.007 38.528 230.77 38.528C231.359 38.528 231.879 38.476 232.33 38.372C232.815 38.2333 233.196 38.0427 233.474 37.8C233.751 37.5227 233.89 37.176 233.89 36.76C233.89 36.1707 233.647 35.7027 233.162 35.356C232.711 35.0093 232.122 34.732 231.394 34.524C230.666 34.2813 229.886 34.0387 229.054 33.796C226.974 33.1373 225.466 32.184 224.53 30.936C223.628 29.6533 223.178 28.2667 223.178 26.776C223.178 25.632 223.472 24.488 224.062 23.344C224.686 22.1653 225.656 21.1947 226.974 20.432C228.326 19.6347 230.059 19.236 232.174 19.236C234.08 19.236 235.692 19.4267 237.01 19.808C238.327 20.1893 239.575 20.8133 240.754 21.68L237.998 25.944C237.339 25.424 236.594 24.9907 235.762 24.644C234.964 24.2627 234.219 24.0547 233.526 24.02C232.902 23.9853 232.364 24.0547 231.914 24.228C231.498 24.4013 231.168 24.6267 230.926 24.904C230.683 25.1813 230.562 25.476 230.562 25.788C230.527 26.4467 230.77 26.9667 231.29 27.348C231.844 27.7293 232.538 28.024 233.37 28.232C234.202 28.44 235.016 28.6827 235.814 28.96C236.923 29.3067 237.876 29.7747 238.674 30.364C239.471 30.9533 240.078 31.664 240.494 32.496C240.944 33.2933 241.17 34.264 241.17 35.408C241.17 36.7947 240.806 38.112 240.078 39.36C239.384 40.5733 238.31 41.5613 236.854 42.324C235.432 43.0867 233.612 43.468 231.394 43.468ZM159.766 92.972C158.761 93.7693 157.496 94.4107 155.97 94.896C154.48 95.3813 153.006 95.624 151.55 95.624C148.95 95.624 146.68 95.156 144.738 94.22C142.832 93.2493 141.341 91.88 140.266 90.112C139.226 88.3093 138.706 86.1427 138.706 83.612C138.706 81.0813 139.278 78.932 140.422 77.164C141.566 75.3613 143.057 73.992 144.894 73.056C146.766 72.12 148.725 71.652 150.77 71.652C152.816 71.652 154.584 71.9293 156.074 72.484C157.6 73.0387 158.9 73.7667 159.974 74.668L156.438 79.348C155.953 78.9667 155.277 78.5853 154.41 78.204C153.578 77.788 152.59 77.58 151.446 77.58C150.441 77.58 149.522 77.84 148.69 78.36C147.858 78.88 147.2 79.5907 146.714 80.492C146.229 81.3933 145.986 82.4333 145.986 83.612C145.986 84.7213 146.246 85.744 146.766 86.68C147.286 87.616 147.997 88.3613 148.898 88.916C149.834 89.436 150.926 89.696 152.174 89.696C152.972 89.696 153.7 89.592 154.358 89.384C155.052 89.1413 155.641 88.812 156.126 88.396L159.766 92.972ZM163.589 83.352C163.589 81.0293 164.127 78.9493 165.201 77.112C166.311 75.2747 167.853 73.836 169.829 72.796C171.805 71.7213 174.076 71.184 176.641 71.184C179.241 71.184 181.495 71.7213 183.401 72.796C185.308 73.836 186.764 75.2747 187.769 77.112C188.809 78.9493 189.329 81.0293 189.329 83.352C189.329 85.6747 188.809 87.772 187.769 89.644C186.764 91.4813 185.308 92.9373 183.401 94.012C181.495 95.0867 179.207 95.624 176.537 95.624C174.041 95.624 171.805 95.1387 169.829 94.168C167.888 93.1973 166.363 91.7933 165.253 89.956C164.144 88.1187 163.589 85.9173 163.589 83.352ZM170.921 83.404C170.921 84.5827 171.164 85.6573 171.649 86.628C172.135 87.564 172.793 88.3093 173.625 88.864C174.457 89.4187 175.393 89.696 176.433 89.696C177.577 89.696 178.565 89.4187 179.397 88.864C180.229 88.3093 180.871 87.564 181.321 86.628C181.772 85.6573 181.997 84.5827 181.997 83.404C181.997 82.1907 181.772 81.116 181.321 80.18C180.871 79.244 180.229 78.4987 179.397 77.944C178.565 77.3893 177.577 77.112 176.433 77.112C175.393 77.112 174.457 77.3893 173.625 77.944C172.793 78.4987 172.135 79.244 171.649 80.18C171.164 81.116 170.921 82.1907 170.921 83.404ZM197.248 95V78.62H193.4V72.172H197.248V64.268C197.248 61.2867 198.098 58.86 199.796 56.988C201.53 55.0813 204.026 54.128 207.284 54.128C208.255 54.128 209.33 54.284 210.508 54.596C211.722 54.8733 212.779 55.3413 213.68 56L210.612 61.252C210.266 60.8013 209.85 60.5067 209.364 60.368C208.914 60.1947 208.48 60.108 208.064 60.108C207.024 60.108 206.175 60.4547 205.516 61.148C204.858 61.8413 204.528 62.9507 204.528 64.476V72.172H211.392V78.62H204.528V95H197.248ZM214.044 95V78.62H210.196V72.172H214.044V64.268C214.044 61.2867 214.894 58.86 216.592 56.988C218.326 55.0813 220.822 54.128 224.08 54.128C225.051 54.128 226.126 54.284 227.304 54.596C228.518 54.8733 229.575 55.3413 230.476 56L227.408 61.252C227.062 60.8013 226.646 60.5067 226.16 60.368C225.71 60.1947 225.276 60.108 224.86 60.108C223.82 60.108 222.971 60.4547 222.312 61.148C221.654 61.8413 221.324 62.9507 221.324 64.476V72.172H228.188V78.62H221.324V95H214.044ZM245.143 95.624C242.369 95.624 240.012 95.104 238.071 94.064C236.164 93.024 234.708 91.5853 233.703 89.748C232.697 87.9107 232.195 85.796 232.195 83.404C232.195 81.116 232.784 79.0533 233.963 77.216C235.141 75.3787 236.719 73.9227 238.695 72.848C240.671 71.7387 242.872 71.184 245.299 71.184C248.557 71.184 251.227 72.1373 253.307 74.044C255.421 75.916 256.791 78.6373 257.415 82.208L239.735 87.824L238.123 83.872L250.915 79.556L249.407 80.232C249.129 79.3307 248.627 78.5507 247.899 77.892C247.205 77.1987 246.148 76.852 244.727 76.852C243.652 76.852 242.699 77.112 241.867 77.632C241.069 78.1173 240.445 78.828 239.995 79.764C239.579 80.6653 239.371 81.74 239.371 82.988C239.371 84.4093 239.631 85.6053 240.151 86.576C240.671 87.512 241.381 88.2227 242.283 88.708C243.184 89.1933 244.189 89.436 245.299 89.436C246.096 89.436 246.859 89.2973 247.587 89.02C248.349 88.7427 249.095 88.3787 249.823 87.928L253.047 93.336C251.833 94.0293 250.516 94.584 249.095 95C247.708 95.416 246.391 95.624 245.143 95.624ZM273.885 95.624C271.112 95.624 268.754 95.104 266.813 94.064C264.906 93.024 263.45 91.5853 262.445 89.748C261.44 87.9107 260.937 85.796 260.937 83.404C260.937 81.116 261.526 79.0533 262.705 77.216C263.884 75.3787 265.461 73.9227 267.437 72.848C269.413 71.7387 271.614 71.184 274.041 71.184C277.3 71.184 279.969 72.1373 282.049 74.044C284.164 75.916 285.533 78.6373 286.157 82.208L268.477 87.824L266.865 83.872L279.657 79.556L278.149 80.232C277.872 79.3307 277.369 78.5507 276.641 77.892C275.948 77.1987 274.89 76.852 273.469 76.852C272.394 76.852 271.441 77.112 270.609 77.632C269.812 78.1173 269.188 78.828 268.737 79.764C268.321 80.6653 268.113 81.74 268.113 82.988C268.113 84.4093 268.373 85.6053 268.893 86.576C269.413 87.512 270.124 88.2227 271.025 88.708C271.926 89.1933 272.932 89.436 274.041 89.436C274.838 89.436 275.601 89.2973 276.329 89.02C277.092 88.7427 277.837 88.3787 278.565 87.928L281.789 93.336C280.576 94.0293 279.258 94.584 277.837 95C276.45 95.416 275.133 95.624 273.885 95.624Z" fill="#522505"/>
<path d="M99.832 42.688L99.3752 43.5776L99.3894 43.5849L99.4039 43.5917L99.832 42.688ZM96.452 40.14L95.5131 39.7957L95.3015 40.3729L95.7209 40.8223L96.452 40.14ZM97.024 38.58H98.024L96.0851 38.2357L97.024 38.58ZM97.024 43V44H98.024V43H97.024ZM89.744 43H88.744V44H89.744V43ZM89.744 1.972V0.971998H88.744V1.972H89.744ZM96.972 1.972H97.972V0.971998H96.972V1.972ZM96.972 21.836L96.3261 21.0726L95.972 21.3722V21.836H96.972ZM100.56 19.912L100.231 18.9678L100.231 18.9678L100.56 19.912ZM111.064 20.536L110.566 21.4031L110.566 21.4031L111.064 20.536ZM114.964 24.644L114.084 25.1181L114.089 25.1283L114.095 25.1383L114.964 24.644ZM114.808 37.8L113.948 37.2901L113.941 37.3021L114.808 37.8ZM110.492 42.116L110.979 42.9894L110.979 42.9894L110.492 42.116ZM106.02 36.656L105.51 35.7957L105.503 35.8L105.496 35.8043L106.02 36.656ZM106.02 25.684L105.496 26.5357L105.515 26.5473L105.534 26.5582L106.02 25.684ZM100.404 25.32L100.733 26.2645L100.744 26.2605L100.755 26.2563L100.404 25.32ZM98.324 26.568L99.0079 27.2975L99.0094 27.2962L98.324 26.568ZM97.024 28.492L96.0985 28.1134L96.024 28.2954V28.492H97.024ZM97.024 34.056H96.024V34.311L96.1461 34.5349L97.024 34.056ZM98.48 35.98L97.7961 36.7095L97.8195 36.7315L97.8443 36.7519L98.48 35.98ZM100.508 37.124L100.166 38.0638L100.185 38.0708L100.205 38.0769L100.508 37.124ZM104.668 42.624C102.866 42.624 101.409 42.3285 100.26 41.7843L99.4039 43.5917C100.89 44.2955 102.657 44.624 104.668 44.624V42.624ZM100.289 41.7984C99.1074 41.1918 98.0739 40.4121 97.1831 39.4577L95.7209 40.8223C96.7715 41.9479 97.9913 42.8669 99.3752 43.5776L100.289 41.7984ZM97.3909 40.4843L97.9629 38.9243L96.0851 38.2357L95.5131 39.7957L97.3909 40.4843ZM96.024 38.58V43H98.024V38.58H96.024ZM97.024 42H89.744V44H97.024V42ZM90.744 43V1.972H88.744V43H90.744ZM89.744 2.972H96.972V0.971998H89.744V2.972ZM95.972 1.972V24.176H97.972V1.972H95.972ZM97.972 24.176V21.836H95.972V24.176H97.972ZM97.6179 22.5994C98.4 21.9376 99.4777 21.3486 100.889 20.8562L100.231 18.9678C98.6609 19.5154 97.3466 20.2091 96.3261 21.0726L97.6179 22.5994ZM100.889 20.8562C102.255 20.3799 103.839 20.132 105.656 20.132V18.132C103.66 18.132 101.847 18.4041 100.231 18.9678L100.889 20.8562ZM105.656 20.132C107.467 20.132 109.096 20.5587 110.566 21.4031L111.562 19.6689C109.773 18.6413 107.797 18.132 105.656 18.132V20.132ZM110.566 21.4031C112.019 22.238 113.193 23.4643 114.084 25.1181L115.844 24.1699C114.794 22.2184 113.367 20.706 111.562 19.6689L110.566 21.4031ZM114.095 25.1383C114.995 26.7211 115.472 28.7074 115.472 31.144H117.472C117.472 28.4499 116.944 26.1029 115.833 24.1497L114.095 25.1383ZM115.472 31.144C115.472 33.5623 114.95 35.5982 113.948 37.2902L115.668 38.3098C116.884 36.2578 117.472 33.8563 117.472 31.144H115.472ZM113.941 37.3021C112.952 39.0243 111.642 40.3298 110.005 41.2426L110.979 42.9894C112.948 41.8915 114.515 40.3197 115.675 38.2979L113.941 37.3021ZM110.005 41.2426C108.352 42.1643 106.579 42.624 104.668 42.624V44.624C106.917 44.624 109.026 44.0784 110.979 42.9894L110.005 41.2426ZM103.056 38.488C104.313 38.488 105.483 38.1609 106.544 37.5077L105.496 35.8043C104.755 36.2604 103.949 36.488 103.056 36.488V38.488ZM106.53 37.5163C107.619 36.8708 108.486 35.9809 109.124 34.8641L107.388 33.8719C106.917 34.6965 106.293 35.3318 105.51 35.7957L106.53 37.5163ZM109.124 34.8641C109.773 33.7296 110.088 32.4641 110.088 31.092H108.088C108.088 32.1466 107.849 33.065 107.388 33.8719L109.124 34.8641ZM110.088 31.092C110.088 29.7205 109.773 28.4658 109.116 27.3582L107.396 28.3778C107.849 29.1422 108.088 30.0369 108.088 31.092H110.088ZM109.116 27.3582C108.473 26.2723 107.599 25.4174 106.506 24.8098L105.534 26.5582C106.313 26.9906 106.93 27.5917 107.396 28.3778L109.116 27.3582ZM106.544 24.8323C105.483 24.1791 104.313 23.852 103.056 23.852V25.852C103.949 25.852 104.755 26.0795 105.496 26.5357L106.544 24.8323ZM103.056 23.852C102.007 23.852 101.003 24.0274 100.053 24.3837L100.755 26.2563C101.469 25.9886 102.233 25.852 103.056 25.852V23.852ZM100.075 24.3755C99.1512 24.697 98.3348 25.1846 97.6386 25.8398L99.0094 27.2962C99.4919 26.8421 100.062 26.4977 100.733 26.2645L100.075 24.3755ZM97.6401 25.8385C96.972 26.4647 96.4602 27.229 96.0985 28.1134L97.9495 28.8706C98.2118 28.2296 98.5666 27.7113 99.0079 27.2975L97.6401 25.8385ZM96.024 28.492V34.056H98.024V28.492H96.024ZM96.1461 34.5349C96.6059 35.3778 97.1536 36.1073 97.7961 36.7095L99.1639 35.2505C98.697 34.8127 98.2741 34.2596 97.9019 33.5771L96.1461 34.5349ZM97.8443 36.7519C98.5268 37.314 99.3035 37.7501 100.166 38.0638L100.85 36.1842C100.187 35.9433 99.6119 35.6167 99.1157 35.2081L97.8443 36.7519ZM100.205 38.0769C101.08 38.3556 102.034 38.488 103.056 38.488V36.488C102.206 36.488 101.461 36.3778 100.811 36.1711L100.205 38.0769ZM126.301 42.064L125.822 42.9419L125.829 42.9455L126.301 42.064ZM121.933 37.748L121.056 38.228L121.056 38.228L121.933 37.748ZM126.925 20.848L127.403 21.7266L127.415 21.72L126.925 20.848ZM141.537 22.044L140.861 22.7812L140.868 22.787L140.874 22.7928L141.537 22.044ZM145.645 30.208L145.948 31.1611L146.781 30.8966L146.63 30.0359L145.645 30.208ZM127.965 35.824L127.039 36.2017L127.388 37.0566L128.268 36.7771L127.965 35.824ZM126.353 31.872L126.034 30.9245L125.025 31.2646L125.427 32.2497L126.353 31.872ZM139.145 27.556L139.554 28.4685L138.826 26.6085L139.145 27.556ZM137.637 28.232L136.681 28.5261L137.014 29.6072L138.046 29.1445L137.637 28.232ZM136.129 25.892L135.422 26.5991L135.44 26.6168L135.458 26.6335L136.129 25.892ZM130.097 25.632L130.617 26.4863L130.627 26.48L130.097 25.632ZM128.225 27.764L127.324 27.3302L127.321 27.3375L127.317 27.3449L128.225 27.764ZM128.381 34.576L127.5 35.0482L127.503 35.055L127.507 35.0616L128.381 34.576ZM130.513 36.708L130.039 37.5885L130.039 37.5885L130.513 36.708ZM135.817 37.02L135.475 36.0802L135.468 36.0828L135.461 36.0855L135.817 37.02ZM138.053 35.928L138.912 35.4159L138.391 34.5425L137.527 35.0777L138.053 35.928ZM141.277 41.336L141.773 42.2042L142.658 41.6989L142.136 40.8239L141.277 41.336ZM137.325 43L137.044 42.0402L137.038 42.0422L137.325 43ZM133.373 42.624C130.723 42.624 128.537 42.1271 126.773 41.1825L125.829 42.9455C127.948 44.0809 130.477 44.624 133.373 44.624V42.624ZM126.78 41.1861C125.035 40.2343 123.72 38.9308 122.81 37.268L121.056 38.228C122.157 40.2398 123.754 41.8137 125.822 42.9419L126.78 41.1861ZM122.81 37.268C121.897 35.5976 121.425 33.6523 121.425 31.404H119.425C119.425 33.9397 119.959 36.2237 121.056 38.228L122.81 37.268ZM121.425 31.404C121.425 29.2977 121.965 27.4242 123.035 25.756L121.352 24.676C120.064 26.6825 119.425 28.9343 119.425 31.404H121.425ZM123.035 25.756C124.12 24.0647 125.57 22.7233 127.403 21.7265L126.447 19.9695C124.328 21.1221 122.624 22.6926 121.352 24.676L123.035 25.756ZM127.415 21.72C129.231 20.7005 131.261 20.184 133.529 20.184V18.184C130.944 18.184 128.572 18.7768 126.436 19.976L127.415 21.72ZM133.529 20.184C136.579 20.184 138.994 21.0696 140.861 22.7812L142.213 21.3068C139.92 19.2051 136.997 18.184 133.529 18.184V20.184ZM140.874 22.7928C142.776 24.4765 144.064 26.9685 144.66 30.3801L146.63 30.0359C145.978 26.3062 144.527 23.3555 142.2 21.2952L140.874 22.7928ZM145.342 29.2549L127.662 34.8709L128.268 36.7771L145.948 31.1611L145.342 29.2549ZM128.891 35.4463L127.279 31.4943L125.427 32.2497L127.039 36.2017L128.891 35.4463ZM126.673 32.8195L139.465 28.5035L138.826 26.6085L126.034 30.9245L126.673 32.8195ZM138.736 26.6435L137.228 27.3195L138.046 29.1445L139.554 28.4685L138.736 26.6435ZM138.593 27.9379C138.26 26.8573 137.656 25.9247 136.8 25.1505L135.458 26.6335C136.059 27.1766 136.459 27.8041 136.681 28.5261L138.593 27.9379ZM136.836 25.1849C135.885 24.2338 134.524 23.852 132.957 23.852V25.852C134.233 25.852 134.987 26.1636 135.422 26.5991L136.836 25.1849ZM132.957 23.852C131.714 23.852 130.573 24.1553 129.567 24.784L130.627 26.48C131.285 26.0687 132.051 25.852 132.957 25.852V23.852ZM129.577 24.7778C128.597 25.3747 127.849 26.2405 127.324 27.3302L129.126 28.1978C129.503 27.4155 130.003 26.86 130.617 26.4862L129.577 24.7778ZM127.317 27.3449C126.827 28.4069 126.601 29.6314 126.601 30.988H128.601C128.601 29.8486 128.791 28.9238 129.133 28.1831L127.317 27.3449ZM126.601 30.988C126.601 32.5276 126.883 33.8962 127.5 35.0482L129.263 34.1038C128.84 33.3145 128.601 32.2911 128.601 30.988H126.601ZM127.507 35.0616C128.115 36.1567 128.961 37.0082 130.039 37.5885L130.987 35.8275C130.262 35.4371 129.687 34.8673 129.255 34.0904L127.507 35.0616ZM130.039 37.5885C131.098 38.1587 132.269 38.436 133.529 38.436V36.436C132.571 36.436 131.731 36.2279 130.987 35.8275L130.039 37.5885ZM133.529 38.436C134.445 38.436 135.329 38.2762 136.173 37.9545L135.461 36.0855C134.85 36.3185 134.208 36.436 133.529 36.436V38.436ZM136.159 37.9598C136.99 37.6578 137.796 37.263 138.58 36.7783L137.527 35.0777C136.854 35.4943 136.17 35.8276 135.475 36.0802L136.159 37.9598ZM137.194 36.4401L140.418 41.8481L142.136 40.8239L138.912 35.4159L137.194 36.4401ZM140.781 40.4678C139.64 41.12 138.395 41.6449 137.044 42.0403L137.606 43.9597C139.098 43.5231 140.488 42.9386 141.773 42.2042L140.781 40.4678ZM137.038 42.0422C135.73 42.4346 134.51 42.624 133.373 42.624V44.624C134.733 44.624 136.147 44.3974 137.613 43.9578L137.038 42.0422ZM154.731 42.376L154.277 43.2668L154.288 43.2723L154.299 43.2775L154.731 42.376ZM154.835 20.692L155.345 21.5526L155.351 21.5488L155.358 21.5449L154.835 20.692ZM165.339 20.276L164.785 21.108L164.799 21.1177L164.814 21.1268L165.339 20.276ZM168.251 22.72L169.194 23.0528L169.385 22.5119L169.015 22.0741L168.251 22.72ZM167.939 23.604L166.959 23.4049L168.882 23.9368L167.939 23.604ZM168.615 20.276V19.276H167.798L167.635 20.0769L168.615 20.276ZM175.375 20.276H176.375V19.276H175.375V20.276ZM175.375 43V44H176.375V43H175.375ZM168.095 43H167.095V44H168.095V43ZM168.095 38.06L169.034 37.7157L167.095 38.06H168.095ZM168.667 39.62V40.62H170.099L169.606 39.2757L168.667 39.62ZM168.043 40.244L168.783 40.9167L168.798 40.9007L168.812 40.8842L168.043 40.244ZM166.483 41.648L167.103 42.4329L167.108 42.4289L166.483 41.648ZM163.987 43L163.633 42.065L163.613 42.0725L163.593 42.0809L163.987 43ZM164.923 37.332L165.254 38.2759L165.274 38.2686L165.295 38.2605L164.923 37.332ZM166.743 36.188L167.426 36.9191L167.438 36.9073L167.451 36.8951L166.743 36.188ZM168.095 34.264L168.99 34.7112L169.095 34.5001V34.264H168.095ZM168.095 28.7H169.095V28.5238L169.035 28.3583L168.095 28.7ZM166.847 26.776L166.14 27.4831L166.152 27.4945L166.163 27.5055L166.847 26.776ZM164.871 25.528L164.493 26.4535L164.511 26.461L164.53 26.4678L164.871 25.528ZM159.411 25.892L159.926 26.7495L159.936 26.7437L159.411 25.892ZM157.331 28.076L158.206 28.5616L158.206 28.5616L157.331 28.076ZM157.383 34.576L156.515 35.0721L156.515 35.0721L157.383 34.576ZM159.567 36.864L159.043 37.7157L159.05 37.72L159.058 37.7243L159.567 36.864ZM160.503 42.624C158.523 42.624 156.749 42.2354 155.164 41.4745L154.299 43.2775C156.18 44.1806 158.254 44.624 160.503 44.624V42.624ZM155.186 41.4852C153.673 40.7134 152.46 39.5397 151.545 37.9297L149.806 38.9183C150.901 40.8443 152.392 42.3053 154.277 43.2668L155.186 41.4852ZM151.545 37.9297C150.65 36.3557 150.167 34.2871 150.167 31.664H148.167C148.167 34.5182 148.69 36.9563 149.806 38.9183L151.545 37.9297ZM150.167 31.664C150.167 29.235 150.659 27.1903 151.602 25.4936L149.853 24.5224C148.716 26.5697 148.167 28.9623 148.167 31.664H150.167ZM151.602 25.4936C152.563 23.7632 153.812 22.4599 155.345 21.5526L154.326 19.8314C152.462 20.9348 150.972 22.5088 149.853 24.5224L151.602 25.4936ZM155.358 21.5449C156.906 20.5966 158.529 20.132 160.243 20.132V18.132C158.144 18.132 156.162 18.7074 154.313 19.8391L155.358 21.5449ZM160.243 20.132C162.413 20.132 163.879 20.5046 164.785 21.108L165.894 19.4439C164.511 18.5221 162.58 18.132 160.243 18.132V20.132ZM164.814 21.1268C165.918 21.8088 166.804 22.5575 167.488 23.3659L169.015 22.0741C168.173 21.0798 167.118 20.1992 165.865 19.4252L164.814 21.1268ZM167.308 22.3872L166.996 23.2712L168.882 23.9368L169.194 23.0528L167.308 22.3872ZM168.919 23.8031L169.595 20.4751L167.635 20.0769L166.959 23.4049L168.919 23.8031ZM168.615 21.276H175.375V19.276H168.615V21.276ZM174.375 20.276V43H176.375V20.276H174.375ZM175.375 42H168.095V44H175.375V42ZM169.095 43V38.06H167.095V43H169.095ZM167.157 38.4043L167.729 39.9643L169.606 39.2757L169.034 37.7157L167.157 38.4043ZM168.667 38.62C168.432 38.62 168.257 38.7005 168.188 38.7353C168.102 38.7782 168.034 38.8257 167.989 38.859C167.9 38.9262 167.818 39.003 167.752 39.0689C167.616 39.2051 167.455 39.3884 167.275 39.6038L168.812 40.8842C168.979 40.6836 169.095 40.5549 169.167 40.4831C169.205 40.445 169.21 40.4438 169.189 40.459C169.18 40.4663 169.142 40.4943 169.082 40.5242C169.051 40.5398 169.003 40.5615 168.94 40.5803C168.879 40.5986 168.785 40.62 168.667 40.62V38.62ZM167.303 39.5713C167.009 39.8955 166.536 40.3255 165.859 40.8671L167.108 42.4289C167.818 41.8612 168.385 41.3551 168.783 40.9167L167.303 39.5713ZM165.864 40.8631C165.304 41.3049 164.568 41.7102 163.633 42.065L164.342 43.935C165.417 43.5271 166.345 43.0311 167.103 42.4329L165.864 40.8631ZM163.593 42.0809C162.777 42.4308 161.756 42.624 160.503 42.624V44.624C161.954 44.624 163.257 44.4012 164.381 43.9191L163.593 42.0809ZM162.583 38.696C163.543 38.696 164.437 38.5617 165.254 38.2759L164.593 36.3881C164.023 36.5876 163.357 36.696 162.583 36.696V38.696ZM165.295 38.2605C166.097 37.9395 166.811 37.493 167.426 36.9191L166.061 35.4569C165.636 35.8536 165.136 36.1699 164.552 36.4035L165.295 38.2605ZM167.451 36.8951C168.058 36.2881 168.568 35.555 168.99 34.7112L167.201 33.8168C166.86 34.4983 166.469 35.0479 166.036 35.4809L167.451 36.8951ZM169.095 34.264V28.7H167.095V34.264H169.095ZM169.035 28.3583C168.708 27.4582 168.208 26.681 167.531 26.0465L166.163 27.5055C166.596 27.911 166.928 28.4164 167.156 29.0417L169.035 28.3583ZM167.555 26.0689C166.893 25.4073 166.108 24.9137 165.213 24.5882L164.53 26.4678C165.16 26.697 165.693 27.0354 166.14 27.4831L167.555 26.0689ZM165.25 24.6025C164.352 24.2351 163.372 24.06 162.323 24.06V26.06C163.147 26.06 163.866 26.1969 164.493 26.4535L165.25 24.6025ZM162.323 24.06C161.095 24.06 159.943 24.3905 158.887 25.0403L159.936 26.7437C160.682 26.2842 161.472 26.06 162.323 26.06V24.06ZM158.897 25.0345C157.871 25.6502 157.057 26.5105 156.457 27.5904L158.206 28.5616C158.646 27.7695 159.219 27.1738 159.926 26.7495L158.897 25.0345ZM156.457 27.5904C155.844 28.6938 155.551 29.9397 155.551 31.3H157.551C157.551 30.2336 157.779 29.3302 158.206 28.5616L156.457 27.5904ZM155.551 31.3C155.551 32.6721 155.867 33.9376 156.515 35.0721L158.252 34.0799C157.791 33.273 157.551 32.3546 157.551 31.3H155.551ZM156.515 35.0721C157.148 36.1798 157.991 37.0682 159.043 37.7157L160.092 36.0123C159.341 35.5505 158.728 34.9135 158.252 34.0799L156.515 35.0721ZM159.058 37.7243C160.146 38.3692 161.327 38.696 162.583 38.696V36.696C161.69 36.696 160.861 36.4681 160.077 36.0037L159.058 37.7243ZM189.481 20.276L190.471 20.1364L190.35 19.276H189.481V20.276ZM190.053 24.332L189.091 24.6067L191.043 24.1924L190.053 24.332ZM189.949 23.968L189.077 23.4787L188.873 23.8421L188.987 24.2427L189.949 23.968ZM193.329 20.536L193.84 21.3953L193.848 21.3908L193.855 21.3863L193.329 20.536ZM204.041 21.108L203.371 21.8504L203.38 21.8589L203.39 21.8673L204.041 21.108ZM206.277 25.996H207.277V25.9874L207.277 25.9788L206.277 25.996ZM206.277 43V44H207.277V43H206.277ZM198.997 43H197.997V44H198.997V43ZM198.997 28.7H199.997V28.6828L199.996 28.6655L198.997 28.7ZM198.165 26.308L197.375 26.9219L197.394 26.9464L197.415 26.9696L198.165 26.308ZM192.757 26.464L193.415 27.2166L193.415 27.2166L192.757 26.464ZM190.833 29.428L191.773 29.7676L191.773 29.7676L190.833 29.428ZM190.157 43V44H191.157V43H190.157ZM182.877 43H181.877V44H182.877V43ZM182.877 20.276V19.276H181.877V20.276H182.877ZM188.491 20.4156L189.063 24.4716L191.043 24.1924L190.471 20.1364L188.491 20.4156ZM191.014 24.0573L190.91 23.6933L188.987 24.2427L189.091 24.6067L191.014 24.0573ZM190.821 24.4572C191.529 23.1949 192.529 22.1761 193.84 21.3953L192.817 19.6767C191.217 20.6293 189.963 21.8984 189.077 23.4787L190.821 24.4572ZM193.855 21.3863C195.12 20.6035 196.713 20.184 198.685 20.184V18.184C196.428 18.184 194.45 18.6659 192.802 19.6857L193.855 21.3863ZM198.685 20.184C200.619 20.184 202.156 20.7542 203.371 21.8504L204.711 20.3656C203.083 18.8965 201.049 18.184 198.685 18.184V20.184ZM203.39 21.8673C204.617 22.9192 205.247 24.2726 205.277 26.0132L207.277 25.9788C207.237 23.698 206.376 21.7928 204.692 20.3487L203.39 21.8673ZM205.277 25.996V43H207.277V25.996H205.277ZM206.277 42H198.997V44H206.277V42ZM199.997 43V28.7H197.997V43H199.997ZM199.996 28.6655C199.956 27.4946 199.627 26.4534 198.915 25.6464L197.415 26.9696C197.743 27.3413 197.968 27.8947 197.997 28.7345L199.996 28.6655ZM198.954 25.6941C198.201 24.7251 197 24.372 195.669 24.372V26.372C196.695 26.372 197.158 26.6429 197.375 26.9219L198.954 25.6941ZM195.669 24.372C194.318 24.372 193.113 24.8233 192.098 25.7114L193.415 27.2166C194.064 26.6487 194.801 26.372 195.669 26.372V24.372ZM192.098 25.7114C191.116 26.5713 190.389 27.7129 189.892 29.0884L191.773 29.7676C192.178 28.6471 192.734 27.8127 193.415 27.2166L192.098 25.7114ZM189.892 29.0884C189.394 30.4669 189.157 32.0243 189.157 33.744H191.157C191.157 32.205 191.37 30.8851 191.773 29.7676L189.892 29.0884ZM189.157 33.744V43H191.157V33.744H189.157ZM190.157 42H182.877V44H190.157V42ZM183.877 43V20.276H181.877V43H183.877ZM182.877 21.276H189.481V19.276H182.877V21.276ZM214.792 13.932L214.429 14.864L214.879 15.0389L215.296 14.7958L214.792 13.932ZM211.048 12.476L210.375 11.7361L209.18 12.8226L210.685 13.408L211.048 12.476ZM213.284 5.664L213.219 4.66613L212.079 4.74066L212.303 5.86011L213.284 5.664ZM218.848 5.3L219.826 5.09047L219.645 4.24574L218.783 4.30213L218.848 5.3ZM218.588 8.524L217.636 8.21618L217.632 8.22895L217.628 8.24183L218.588 8.524ZM217.028 11.748L216.214 11.1668L216.207 11.1765L216.2 11.1865L217.028 11.748ZM215.154 13L211.41 11.544L210.685 13.408L214.429 14.864L215.154 13ZM211.72 13.2159C212.637 12.3825 213.336 11.2219 213.858 9.8057L211.981 9.11429C211.533 10.3327 210.984 11.1828 210.375 11.7361L211.72 13.2159ZM213.858 9.8057C214.399 8.339 214.548 6.88568 214.264 5.46788L212.303 5.86011C212.505 6.86898 212.412 7.94633 211.981 9.11429L213.858 9.8057ZM213.349 6.66186L218.913 6.29787L218.783 4.30213L213.219 4.66613L213.349 6.66186ZM217.87 5.50953C218.033 6.27072 217.977 7.16368 217.636 8.21618L219.539 8.83182C219.961 7.52698 220.079 6.27061 219.826 5.09047L217.87 5.50953ZM217.628 8.24183C217.312 9.31663 216.841 10.2897 216.214 11.1668L217.842 12.3292C218.602 11.265 219.17 10.0887 219.547 8.80616L217.628 8.24183ZM216.2 11.1865C215.608 12.06 214.966 12.6728 214.288 13.0682L215.296 14.7958C216.282 14.2205 217.131 13.3774 217.855 12.3095L216.2 11.1865ZM226.142 42.48L225.76 43.4043L225.767 43.4071L226.142 42.48ZM222.086 39.724L221.287 39.1223L220.78 39.7956L221.357 40.4094L222.086 39.724ZM225.102 35.72L225.773 34.979L224.962 34.2437L224.303 35.1183L225.102 35.72ZM228.17 37.904L227.736 38.805L227.756 38.8145L227.776 38.8231L228.17 37.904ZM232.33 38.372L232.554 39.3464L232.58 39.3406L232.604 39.3335L232.33 38.372ZM233.474 37.8L234.132 38.5526L234.157 38.5307L234.181 38.5071L233.474 37.8ZM233.162 35.356L232.552 36.1486L232.566 36.1594L232.58 36.1697L233.162 35.356ZM231.394 34.524L231.077 35.4727L231.098 35.4796L231.119 35.4855L231.394 34.524ZM229.054 33.796L228.752 34.7493L228.763 34.7528L228.774 34.756L229.054 33.796ZM224.53 30.936L223.711 31.5109L223.72 31.5236L223.73 31.536L224.53 30.936ZM224.062 23.344L223.178 22.8761L223.173 22.886L224.062 23.344ZM226.974 20.432L227.475 21.2975L227.482 21.2934L226.974 20.432ZM237.01 19.808L236.732 20.7686L236.732 20.7686L237.01 19.808ZM240.754 21.68L241.593 22.2228L242.105 21.4321L241.346 20.8743L240.754 21.68ZM237.998 25.944L237.378 26.7289L238.241 27.41L238.837 26.4868L237.998 25.944ZM235.762 24.644L235.33 25.5461L235.353 25.5572L235.377 25.5671L235.762 24.644ZM233.526 24.02L233.47 25.0185L233.476 25.0188L233.526 24.02ZM231.914 24.228L231.555 23.2947L231.542 23.2996L231.529 23.3049L231.914 24.228ZM230.926 24.904L230.173 24.2455L230.173 24.2455L230.926 24.904ZM230.562 25.788L231.56 25.8406L231.562 25.8143V25.788H230.562ZM231.29 27.348L230.698 28.1544L230.711 28.1634L230.723 28.172L231.29 27.348ZM233.37 28.232L233.127 29.2021L233.127 29.2021L233.37 28.232ZM235.814 28.96L235.485 29.9045L235.5 29.9097L235.515 29.9145L235.814 28.96ZM238.674 30.364L238.079 31.1682L238.079 31.1682L238.674 30.364ZM240.494 32.496L239.599 32.9432L239.611 32.9659L239.623 32.9881L240.494 32.496ZM240.078 39.36L239.214 38.8561L239.209 38.8639L240.078 39.36ZM236.854 42.324L236.39 41.4381L236.381 41.4428L236.854 42.324ZM231.394 42.468C229.642 42.468 228.019 42.1603 226.516 41.5529L225.767 43.4071C227.523 44.117 229.402 44.468 231.394 44.468V42.468ZM226.523 41.5557C225.051 40.9476 223.82 40.1073 222.814 39.0386L221.357 40.4094C222.57 41.698 224.043 42.6951 225.76 43.4043L226.523 41.5557ZM222.884 40.3257L225.9 36.3217L224.303 35.1183L221.287 39.1223L222.884 40.3257ZM224.43 36.461C225.582 37.505 226.684 38.2988 227.736 38.805L228.603 37.003C227.783 36.6079 226.84 35.9457 225.773 34.979L224.43 36.461ZM227.776 38.8231C228.826 39.2733 229.83 39.528 230.77 39.528V37.528C230.184 37.528 229.454 37.3667 228.564 36.9849L227.776 38.8231ZM230.77 39.528C231.415 39.528 232.013 39.4713 232.554 39.3464L232.105 37.3976C231.745 37.4807 231.303 37.528 230.77 37.528V39.528ZM232.604 39.3335C233.182 39.1685 233.711 38.9213 234.132 38.5526L232.815 37.0474C232.682 37.164 232.448 37.2982 232.055 37.4105L232.604 39.3335ZM234.181 38.5071C234.658 38.03 234.89 37.4234 234.89 36.76H232.89C232.89 36.9286 232.844 37.0154 232.767 37.0929L234.181 38.5071ZM234.89 36.76C234.89 35.8431 234.487 35.074 233.743 34.5423L232.58 36.1697C232.807 36.3314 232.89 36.4982 232.89 36.76H234.89ZM233.771 34.5634C233.194 34.1189 232.48 33.7943 231.668 33.5625L231.119 35.4855C231.764 35.6697 232.228 35.8998 232.552 36.1486L233.771 34.5634ZM231.71 33.5753C230.968 33.3282 230.176 33.0818 229.334 32.836L228.774 34.756C229.595 34.9956 230.363 35.2345 231.077 35.4727L231.71 33.5753ZM229.356 32.8427C227.397 32.2226 226.1 31.3625 225.33 30.336L223.73 31.536C224.832 33.0055 226.55 34.0521 228.752 34.7493L229.356 32.8427ZM225.348 30.3611C224.558 29.2375 224.178 28.0499 224.178 26.776H222.178C222.178 28.4835 222.698 30.0691 223.711 31.5109L225.348 30.3611ZM224.178 26.776C224.178 25.8103 224.425 24.8222 224.951 23.802L223.173 22.886C222.52 24.1538 222.178 25.4537 222.178 26.776H224.178ZM224.945 23.8119C225.47 22.8215 226.296 21.9797 227.475 21.2974L226.473 19.5666C225.016 20.4096 223.902 21.5092 223.178 22.8761L224.945 23.8119ZM227.482 21.2934C228.635 20.613 230.178 20.236 232.174 20.236V18.236C229.94 18.236 228.016 18.6563 226.466 19.5706L227.482 21.2934ZM232.174 20.236C234.02 20.236 235.532 20.4214 236.732 20.7686L237.288 18.8474C235.852 18.432 234.141 18.236 232.174 18.236V20.236ZM236.732 20.7686C237.928 21.115 239.071 21.684 240.161 22.4856L241.346 20.8743C240.079 19.9426 238.725 19.2636 237.288 18.8474L236.732 20.7686ZM239.914 21.1372L237.158 25.4012L238.837 26.4868L241.593 22.2228L239.914 21.1372ZM238.617 25.1591C237.882 24.5785 237.056 24.1001 236.146 23.7209L235.377 25.5671C236.131 25.8812 236.796 26.2695 237.378 26.7289L238.617 25.1591ZM236.193 23.7419C235.308 23.3184 234.432 23.0641 233.576 23.0212L233.476 25.0188C234.006 25.0453 234.621 25.207 235.33 25.5461L236.193 23.7419ZM233.581 23.0215C232.856 22.9812 232.17 23.0579 231.555 23.2947L232.273 25.1613C232.559 25.0514 232.947 24.9894 233.47 25.0185L233.581 23.0215ZM231.529 23.3049C231.003 23.5242 230.536 23.8301 230.173 24.2455L231.678 25.5625C231.8 25.4232 231.993 25.2784 232.298 25.1511L231.529 23.3049ZM230.173 24.2455C229.801 24.6703 229.562 25.1912 229.562 25.788H231.562C231.562 25.7608 231.565 25.6924 231.678 25.5625L230.173 24.2455ZM229.563 25.7354C229.511 26.7215 229.899 27.5683 230.698 28.1544L231.881 26.5416C231.64 26.3651 231.543 26.1719 231.56 25.8406L229.563 25.7354ZM230.723 28.172C231.399 28.6367 232.21 28.9728 233.127 29.2021L233.612 27.2619C232.866 27.0752 232.29 26.8219 231.856 26.524L230.723 28.172ZM233.127 29.2021C233.931 29.403 234.716 29.6371 235.485 29.9045L236.142 28.0155C235.316 27.7282 234.473 27.477 233.612 27.2619L233.127 29.2021ZM235.515 29.9145C236.536 30.2335 237.385 30.6554 238.079 31.1682L239.268 29.5598C238.367 28.8939 237.31 28.3798 236.112 28.0055L235.515 29.9145ZM238.079 31.1682C238.758 31.6702 239.258 32.2614 239.599 32.9432L241.388 32.0488C240.897 31.0666 240.184 30.2365 239.268 29.5598L238.079 31.1682ZM239.623 32.9881C239.97 33.6023 240.17 34.3941 240.17 35.408H242.17C242.17 34.1339 241.918 32.9844 241.364 32.0039L239.623 32.9881ZM240.17 35.408C240.17 36.61 239.857 37.7544 239.214 38.8561L240.941 39.8639C241.755 38.4696 242.17 36.9793 242.17 35.408H240.17ZM239.209 38.8639C238.626 39.884 237.707 40.7483 236.39 41.4382L237.318 43.2098C238.913 42.3744 240.142 41.2627 240.946 39.8561L239.209 38.8639ZM236.381 41.4428C235.149 42.1037 233.506 42.468 231.394 42.468V44.468C233.718 44.468 235.715 44.0696 237.326 43.2052L236.381 41.4428ZM159.766 92.972L160.388 93.7555L161.172 93.1332L160.549 92.3495L159.766 92.972ZM155.97 94.896L155.667 93.9431L155.661 93.9451L155.97 94.896ZM144.738 94.22L144.285 95.1112L144.294 95.1161L144.304 95.1208L144.738 94.22ZM140.266 90.112L139.4 90.6117L139.406 90.6216L139.412 90.6314L140.266 90.112ZM140.422 77.164L141.262 77.7073L141.267 77.6998L140.422 77.164ZM144.894 73.056L144.447 72.1615L144.441 72.165L144.894 73.056ZM156.074 72.484L155.726 73.4212L155.733 73.4238L156.074 72.484ZM159.974 74.668L160.772 75.2708L161.345 74.5125L160.617 73.9018L159.974 74.668ZM156.438 79.348L155.821 80.1343L156.622 80.7639L157.236 79.9508L156.438 79.348ZM154.41 78.204L153.963 79.0984L153.985 79.1094L154.008 79.1193L154.41 78.204ZM148.69 78.36L148.16 77.512L148.16 77.512L148.69 78.36ZM146.714 80.492L145.834 80.0179L145.834 80.0179L146.714 80.492ZM146.766 86.68L147.641 86.1944L147.641 86.1944L146.766 86.68ZM148.898 88.916L148.374 89.7677L148.393 89.7793L148.413 89.7902L148.898 88.916ZM154.358 89.384L154.66 90.3376L154.674 90.3329L154.689 90.3279L154.358 89.384ZM156.126 88.396L156.909 87.7735L156.263 86.9616L155.476 87.6367L156.126 88.396ZM159.145 92.1885C158.255 92.8945 157.105 93.4857 155.667 93.9431L156.274 95.8489C157.887 95.3356 159.267 94.6442 160.388 93.7555L159.145 92.1885ZM155.661 93.9451C154.263 94.4004 152.894 94.624 151.55 94.624V96.624C153.119 96.624 154.697 96.3623 156.28 95.8469L155.661 93.9451ZM151.55 94.624C149.07 94.624 146.954 94.1778 145.173 93.3192L144.304 95.1208C146.406 96.1342 148.831 96.624 151.55 96.624V94.624ZM145.192 93.3288C143.445 92.4394 142.096 91.1962 141.121 89.5926L139.412 90.6314C140.587 92.5638 142.219 94.0592 144.285 95.1112L145.192 93.3288ZM141.133 89.6123C140.197 87.9912 139.706 86.005 139.706 83.612H137.706C137.706 86.2803 138.255 88.6274 139.4 90.6117L141.133 89.6123ZM139.706 83.612C139.706 81.2348 140.242 79.2833 141.262 77.7073L139.583 76.6207C138.315 78.5807 137.706 80.9279 137.706 83.612H139.706ZM141.267 77.6998C142.318 76.0428 143.676 74.7988 145.348 73.947L144.441 72.165C142.438 73.1852 140.815 74.6799 139.578 76.6282L141.267 77.6998ZM145.342 73.9504C147.078 73.0822 148.884 72.652 150.77 72.652V70.652C148.566 70.652 146.455 71.1578 144.447 72.1616L145.342 73.9504ZM150.77 72.652C152.729 72.652 154.373 72.918 155.726 73.4212L156.423 71.5468C154.794 70.9406 152.902 70.652 150.77 70.652V72.652ZM155.733 73.4238C157.165 73.9447 158.359 74.6186 159.332 75.4342L160.617 73.9018C159.44 72.9147 158.034 72.1326 156.416 71.5442L155.733 73.4238ZM159.177 74.0652L155.641 78.7452L157.236 79.9508L160.772 75.2708L159.177 74.0652ZM157.056 78.5617C156.48 78.1087 155.72 77.6879 154.813 77.2887L154.008 79.1193C154.834 79.4828 155.426 79.8246 155.821 80.1343L157.056 78.5617ZM154.858 77.3096C153.859 76.81 152.711 76.58 151.446 76.58V78.58C152.47 78.58 153.298 78.766 153.963 79.0984L154.858 77.3096ZM151.446 76.58C150.259 76.58 149.155 76.8901 148.16 77.512L149.22 79.208C149.889 78.7899 150.624 78.58 151.446 78.58V76.58ZM148.16 77.512C147.175 78.1281 146.398 78.9705 145.834 80.0179L147.595 80.9661C148.002 80.2108 148.542 79.6319 149.22 79.208L148.16 77.512ZM145.834 80.0179C145.259 81.0857 144.986 82.2931 144.986 83.612H146.986C146.986 82.5736 147.199 81.701 147.595 80.9661L145.834 80.0179ZM144.986 83.612C144.986 84.8849 145.287 86.0756 145.892 87.1656L147.641 86.1944C147.206 85.4124 146.986 84.5578 146.986 83.612H144.986ZM145.892 87.1656C146.495 88.2498 147.325 89.1219 148.374 89.7677L149.423 88.0643C148.669 87.6007 148.078 86.9822 147.641 86.1944L145.892 87.1656ZM148.413 89.7902C149.52 90.4054 150.785 90.696 152.174 90.696V88.696C151.068 88.696 150.149 88.4666 149.384 88.0418L148.413 89.7902ZM152.174 90.696C153.059 90.696 153.89 90.5807 154.66 90.3376L154.057 88.4304C153.51 88.6033 152.885 88.696 152.174 88.696V90.696ZM154.689 90.3279C155.482 90.0502 156.185 89.6633 156.777 89.1553L155.476 87.6367C155.098 87.9607 154.621 88.2325 154.028 88.4401L154.689 90.3279ZM155.344 89.0185L158.984 93.5945L160.549 92.3495L156.909 87.7735L155.344 89.0185ZM165.201 77.112L164.345 76.5951L164.338 76.6071L165.201 77.112ZM169.829 72.796L170.295 73.681L170.307 73.6745L169.829 72.796ZM183.401 72.796L182.91 73.6672L182.922 73.6739L183.401 72.796ZM187.769 77.112L186.892 77.592L186.895 77.5983L186.899 77.6046L187.769 77.112ZM187.769 89.644L186.895 89.1583L186.892 89.164L187.769 89.644ZM183.401 94.012L182.91 93.1408L182.91 93.1408L183.401 94.012ZM169.829 94.168L169.382 95.0624L169.388 95.0656L169.829 94.168ZM165.253 89.956L164.397 90.4729L164.397 90.4729L165.253 89.956ZM171.649 86.628L170.755 87.0752L170.758 87.0818L170.762 87.0883L171.649 86.628ZM173.625 88.864L173.071 89.696L173.071 89.6961L173.625 88.864ZM179.397 88.864L178.843 88.0319L178.843 88.0319L179.397 88.864ZM181.321 86.628L182.222 87.0619L182.228 87.0491L181.321 86.628ZM181.321 80.18L180.42 80.6138L180.42 80.6138L181.321 80.18ZM179.397 77.944L178.843 78.776L178.843 78.776L179.397 77.944ZM173.625 77.944L173.071 77.1119L173.071 77.1119L173.625 77.944ZM171.649 80.18L170.762 79.7197L170.762 79.7197L171.649 80.18ZM164.589 83.352C164.589 81.1901 165.087 79.2873 166.064 77.6169L164.338 76.6071C163.166 78.6114 162.589 80.8686 162.589 83.352H164.589ZM166.057 77.6289C167.069 75.9539 168.473 74.6397 170.295 73.6809L169.364 71.9111C167.233 73.0323 165.553 74.5954 164.345 76.5951L166.057 77.6289ZM170.307 73.6745C172.117 72.6902 174.219 72.184 176.641 72.184V70.184C173.933 70.184 171.494 70.7525 169.352 71.9175L170.307 73.6745ZM176.641 72.184C179.102 72.184 181.179 72.6916 182.91 73.6672L183.892 71.9248C181.81 70.7511 179.381 70.184 176.641 70.184V72.184ZM182.922 73.6739C184.667 74.6257 185.982 75.9292 186.892 77.592L188.647 76.632C187.546 74.6202 185.948 73.0463 183.88 71.9181L182.922 73.6739ZM186.899 77.6046C187.846 79.277 188.329 81.1843 188.329 83.352H190.329C190.329 80.8744 189.773 78.6217 188.64 76.6194L186.899 77.6046ZM188.329 83.352C188.329 85.5195 187.846 87.4473 186.895 89.1584L188.643 90.1296C189.773 88.0967 190.329 85.8298 190.329 83.352H188.329ZM186.892 89.164C185.981 90.8298 184.662 92.1536 182.91 93.1408L183.892 94.8832C185.954 93.7211 187.547 92.1328 188.647 90.124L186.892 89.164ZM182.91 93.1408C181.183 94.1143 179.072 94.624 176.537 94.624V96.624C179.341 96.624 181.806 96.059 183.892 94.8832L182.91 93.1408ZM176.537 94.624C174.174 94.624 172.092 94.1652 170.27 93.2704L169.388 95.0656C171.519 96.1121 173.909 96.624 176.537 96.624V94.624ZM170.276 93.2736C168.502 92.3865 167.12 91.1125 166.109 89.4391L164.397 90.4729C165.606 92.4741 167.273 94.0081 169.382 95.0624L170.276 93.2736ZM166.109 89.4391C165.111 87.7858 164.589 85.7709 164.589 83.352H162.589C162.589 86.0637 163.177 88.4515 164.397 90.4729L166.109 89.4391ZM169.921 83.404C169.921 84.7243 170.194 85.954 170.755 87.0752L172.544 86.1808C172.134 85.3607 171.921 84.441 171.921 83.404H169.921ZM170.762 87.0883C171.32 88.1659 172.09 89.0425 173.071 89.696L174.18 88.0319C173.496 87.5762 172.949 86.9621 172.537 86.1677L170.762 87.0883ZM173.071 89.6961C174.074 90.3648 175.204 90.696 176.433 90.696V88.696C175.582 88.696 174.841 88.4726 174.18 88.0319L173.071 89.6961ZM176.433 90.696C177.745 90.696 178.933 90.3754 179.952 89.696L178.843 88.0319C178.198 88.4619 177.409 88.696 176.433 88.696V90.696ZM179.952 89.6961C180.939 89.0381 181.697 88.1526 182.222 87.0618L180.42 86.1942C180.044 86.9754 179.52 87.5806 178.843 88.0319L179.952 89.6961ZM182.228 87.0491C182.746 85.9336 182.997 84.7132 182.997 83.404H180.997C180.997 84.4521 180.798 85.381 180.414 86.2069L182.228 87.0491ZM182.997 83.404C182.997 82.0656 182.748 80.8385 182.222 79.7462L180.42 80.6138C180.796 81.3935 180.997 82.3158 180.997 83.404H182.997ZM182.222 79.7462C181.697 78.6554 180.939 77.7699 179.952 77.1119L178.843 78.776C179.52 79.2274 180.044 79.8326 180.42 80.6138L182.222 79.7462ZM179.952 77.1119C178.933 76.4326 177.745 76.112 176.433 76.112V78.112C177.409 78.112 178.198 78.3461 178.843 78.776L179.952 77.1119ZM176.433 76.112C175.204 76.112 174.074 76.4432 173.071 77.1119L174.18 78.776C174.841 78.3354 175.582 78.112 176.433 78.112V76.112ZM173.071 77.1119C172.09 77.7655 171.32 78.6421 170.762 79.7197L172.537 80.6403C172.949 79.8459 173.496 79.2318 174.18 78.776L173.071 77.1119ZM170.762 79.7197C170.192 80.818 169.921 82.0547 169.921 83.404H171.921C171.921 82.3266 172.136 81.414 172.537 80.6403L170.762 79.7197ZM197.248 95H196.248V96H197.248V95ZM197.248 78.62H198.248V77.62H197.248V78.62ZM193.4 78.62H192.4V79.62H193.4V78.62ZM193.4 72.172V71.172H192.4V72.172H193.4ZM197.248 72.172V73.172H198.248V72.172H197.248ZM199.796 56.988L199.056 56.3153L199.056 56.316L199.796 56.988ZM210.508 54.596L210.252 55.5627L210.269 55.5671L210.285 55.5709L210.508 54.596ZM213.68 56L214.544 56.5044L214.999 55.7251L214.27 55.1926L213.68 56ZM210.612 61.252L209.82 61.8617L210.726 63.0399L211.476 61.7564L210.612 61.252ZM209.364 60.368L209.005 61.3013L209.047 61.3173L209.09 61.3295L209.364 60.368ZM205.516 61.148L204.791 60.4592L204.791 60.4592L205.516 61.148ZM204.528 72.172H203.528V73.172H204.528V72.172ZM211.392 72.172H212.392V71.172H211.392V72.172ZM211.392 78.62V79.62H212.392V78.62H211.392ZM204.528 78.62V77.62H203.528V78.62H204.528ZM204.528 95V96H205.528V95H204.528ZM214.044 95H213.044V96H214.044V95ZM214.044 78.62H215.044V77.62H214.044V78.62ZM210.196 78.62H209.196V79.62H210.196V78.62ZM210.196 72.172V71.172H209.196V72.172H210.196ZM214.044 72.172V73.172H215.044V72.172H214.044ZM216.592 56.988L215.852 56.3153L215.852 56.316L216.592 56.988ZM227.304 54.596L227.048 55.5627L227.065 55.5671L227.081 55.5709L227.304 54.596ZM230.476 56L231.34 56.5044L231.795 55.7251L231.066 55.1926L230.476 56ZM227.408 61.252L226.616 61.8617L227.522 63.0399L228.272 61.7564L227.408 61.252ZM226.16 60.368L225.801 61.3013L225.843 61.3173L225.886 61.3295L226.16 60.368ZM221.324 72.172H220.324V73.172H221.324V72.172ZM228.188 72.172H229.188V71.172H228.188V72.172ZM228.188 78.62V79.62H229.188V78.62H228.188ZM221.324 78.62V77.62H220.324V78.62H221.324ZM221.324 95V96H222.324V95H221.324ZM198.248 95V78.62H196.248V95H198.248ZM197.248 77.62H193.4V79.62H197.248V77.62ZM194.4 78.62V72.172H192.4V78.62H194.4ZM193.4 73.172H197.248V71.172H193.4V73.172ZM198.248 72.172V64.268H196.248V72.172H198.248ZM198.248 64.268C198.248 61.4878 199.034 59.3158 200.537 57.66L199.056 56.316C197.161 58.4042 196.248 61.0855 196.248 64.268H198.248ZM200.536 57.6607C202.032 56.0149 204.228 55.128 207.284 55.128V53.128C203.824 53.128 201.027 54.1477 199.056 56.3153L200.536 57.6607ZM207.284 55.128C208.15 55.128 209.137 55.2674 210.252 55.5627L210.764 53.6293C209.522 53.3006 208.36 53.128 207.284 53.128V55.128ZM210.285 55.5709C211.382 55.8214 212.311 56.2377 213.09 56.8074L214.27 55.1926C213.247 54.445 212.062 53.9253 210.731 53.6211L210.285 55.5709ZM212.817 55.4956L209.749 60.7476L211.476 61.7564L214.544 56.5044L212.817 55.4956ZM211.405 60.6423C210.945 60.0444 210.356 59.6113 209.639 59.4065L209.09 61.3295C209.343 61.402 209.586 61.5583 209.82 61.8617L211.405 60.6423ZM209.723 59.4347C209.176 59.2242 208.621 59.108 208.064 59.108V61.108C208.34 61.108 208.651 61.1651 209.005 61.3013L209.723 59.4347ZM208.064 59.108C206.777 59.108 205.656 59.5487 204.791 60.4592L206.241 61.8367C206.694 61.3607 207.272 61.108 208.064 61.108V59.108ZM204.791 60.4592C203.876 61.4225 203.528 62.8402 203.528 64.476H205.528C205.528 63.0611 205.839 62.2602 206.241 61.8367L204.791 60.4592ZM203.528 64.476V72.172H205.528V64.476H203.528ZM204.528 73.172H211.392V71.172H204.528V73.172ZM210.392 72.172V78.62H212.392V72.172H210.392ZM211.392 77.62H204.528V79.62H211.392V77.62ZM203.528 78.62V95H205.528V78.62H203.528ZM204.528 94H197.248V96H204.528V94ZM215.044 95V78.62H213.044V95H215.044ZM214.044 77.62H210.196V79.62H214.044V77.62ZM211.196 78.62V72.172H209.196V78.62H211.196ZM210.196 73.172H214.044V71.172H210.196V73.172ZM215.044 72.172V64.268H213.044V72.172H215.044ZM215.044 64.268C215.044 61.4878 215.83 59.3158 217.333 57.66L215.852 56.316C213.957 58.4042 213.044 61.0855 213.044 64.268H215.044ZM217.332 57.6607C218.828 56.0149 221.024 55.128 224.08 55.128V53.128C220.62 53.128 217.823 54.1477 215.852 56.3153L217.332 57.6607ZM224.08 55.128C224.946 55.128 225.933 55.2674 227.048 55.5627L227.56 53.6293C226.318 53.3006 225.156 53.128 224.08 53.128V55.128ZM227.081 55.5709C228.178 55.8214 229.107 56.2377 229.886 56.8074L231.066 55.1926C230.043 54.445 228.858 53.9253 227.527 53.6211L227.081 55.5709ZM229.613 55.4956L226.545 60.7476L228.272 61.7564L231.34 56.5044L229.613 55.4956ZM228.201 60.6423C227.741 60.0444 227.152 59.6113 226.435 59.4065L225.886 61.3295C226.139 61.402 226.382 61.5583 226.616 61.8617L228.201 60.6423ZM226.519 59.4347C225.972 59.2242 225.417 59.108 224.86 59.108V61.108C225.136 61.108 225.447 61.1651 225.801 61.3013L226.519 59.4347ZM224.86 59.108C223.573 59.108 222.452 59.5487 221.587 60.4592L223.037 61.8367C223.49 61.3607 224.068 61.108 224.86 61.108V59.108ZM221.587 60.4592C220.672 61.4225 220.324 62.8402 220.324 64.476H222.324C222.324 63.0611 222.635 62.2602 223.037 61.8367L221.587 60.4592ZM220.324 64.476V72.172H222.324V64.476H220.324ZM221.324 73.172H228.188V71.172H221.324V73.172ZM227.188 72.172V78.62H229.188V72.172H227.188ZM228.188 77.62H221.324V79.62H228.188V77.62ZM220.324 78.62V95H222.324V78.62H220.324ZM221.324 94H214.044V96H221.324V94ZM238.071 94.064L237.592 94.9419L237.599 94.9455L238.071 94.064ZM233.703 89.748L232.825 90.228L232.825 90.228L233.703 89.748ZM238.695 72.848L239.173 73.7266L239.184 73.72L238.695 72.848ZM253.307 74.044L252.631 74.7812L252.637 74.787L252.644 74.7928L253.307 74.044ZM257.415 82.208L257.717 83.1611L258.55 82.8966L258.4 82.0359L257.415 82.208ZM239.735 87.824L238.809 88.2017L239.158 89.0566L240.037 88.7771L239.735 87.824ZM238.123 83.872L237.803 82.9245L236.795 83.2646L237.197 84.2497L238.123 83.872ZM250.915 79.556L251.324 80.4685L250.595 78.6085L250.915 79.556ZM249.407 80.232L248.451 80.5261L248.784 81.6072L249.816 81.1445L249.407 80.232ZM247.899 77.892L247.192 78.5991L247.209 78.6168L247.228 78.6335L247.899 77.892ZM241.867 77.632L242.387 78.4863L242.397 78.48L241.867 77.632ZM239.995 79.764L239.094 79.3302L239.09 79.3375L239.087 79.3449L239.995 79.764ZM240.151 86.576L239.269 87.0482L239.273 87.055L239.277 87.0616L240.151 86.576ZM242.283 88.708L241.809 89.5885L241.809 89.5885L242.283 88.708ZM247.587 89.02L247.245 88.0802L247.238 88.0828L247.231 88.0855L247.587 89.02ZM249.823 87.928L250.682 87.4159L250.161 86.5425L249.296 87.0777L249.823 87.928ZM253.047 93.336L253.543 94.2042L254.427 93.6989L253.906 92.8239L253.047 93.336ZM249.095 95L248.814 94.0402L248.807 94.0422L249.095 95ZM245.143 94.624C242.492 94.624 240.306 94.1271 238.543 93.1825L237.599 94.9455C239.718 96.0809 242.246 96.624 245.143 96.624V94.624ZM238.55 93.1861C236.805 92.2343 235.49 90.9308 234.58 89.268L232.825 90.228C233.926 92.2398 235.524 93.8137 237.592 94.9419L238.55 93.1861ZM234.58 89.268C233.666 87.5976 233.195 85.6523 233.195 83.404H231.195C231.195 85.9397 231.729 88.2237 232.825 90.228L234.58 89.268ZM233.195 83.404C233.195 81.2977 233.734 79.4242 234.804 77.756L233.121 76.676C231.834 78.6825 231.195 80.9343 231.195 83.404H233.195ZM234.804 77.756C235.889 76.0647 237.34 74.7233 239.173 73.7265L238.217 71.9695C236.098 73.1221 234.393 74.6926 233.121 76.676L234.804 77.756ZM239.184 73.72C241 72.7005 243.031 72.184 245.299 72.184V70.184C242.713 70.184 240.341 70.7768 238.205 71.976L239.184 73.72ZM245.299 72.184C248.349 72.184 250.764 73.0696 252.631 74.7812L253.982 73.3068C251.69 71.2051 248.766 70.184 245.299 70.184V72.184ZM252.644 74.7928C254.546 76.4765 255.833 78.9685 256.43 82.3801L258.4 82.0359C257.748 78.3062 256.297 75.3555 253.97 73.2952L252.644 74.7928ZM257.112 81.2549L239.432 86.8709L240.037 88.7771L257.717 83.1611L257.112 81.2549ZM240.661 87.4463L239.049 83.4943L237.197 84.2497L238.809 88.2017L240.661 87.4463ZM238.442 84.8195L251.234 80.5035L250.595 78.6085L237.803 82.9245L238.442 84.8195ZM250.506 78.6435L248.998 79.3195L249.816 81.1445L251.324 80.4685L250.506 78.6435ZM250.363 79.9379C250.03 78.8573 249.425 77.9247 248.57 77.1505L247.228 78.6335C247.828 79.1766 248.229 79.8041 248.451 80.5261L250.363 79.9379ZM248.606 77.1849C247.655 76.2338 246.294 75.852 244.727 75.852V77.852C246.002 77.852 246.756 78.1636 247.192 78.5991L248.606 77.1849ZM244.727 75.852C243.483 75.852 242.343 76.1553 241.337 76.784L242.397 78.48C243.055 78.0687 243.821 77.852 244.727 77.852V75.852ZM241.347 76.7778C240.366 77.3747 239.618 78.2405 239.094 79.3302L240.896 80.1978C241.272 79.4155 241.773 78.86 242.387 78.4862L241.347 76.7778ZM239.087 79.3449C238.597 80.4069 238.371 81.6314 238.371 82.988H240.371C240.371 81.8486 240.561 80.9238 240.903 80.1831L239.087 79.3449ZM238.371 82.988C238.371 84.5276 238.652 85.8962 239.269 87.0482L241.032 86.1038C240.609 85.3145 240.371 84.2911 240.371 82.988H238.371ZM239.277 87.0616C239.885 88.1567 240.731 89.0082 241.809 89.5885L242.757 87.8275C242.032 87.4371 241.457 86.8673 241.025 86.0904L239.277 87.0616ZM241.809 89.5885C242.868 90.1587 244.038 90.436 245.299 90.436V88.436C244.341 88.436 243.5 88.2279 242.757 87.8275L241.809 89.5885ZM245.299 90.436C246.215 90.436 247.098 90.2762 247.943 89.9545L247.231 88.0855C246.619 88.3185 245.977 88.436 245.299 88.436V90.436ZM247.928 89.9598C248.759 89.6578 249.566 89.263 250.349 88.7783L249.296 87.0777C248.624 87.4943 247.94 87.8276 247.245 88.0802L247.928 89.9598ZM248.964 88.4401L252.188 93.8481L253.906 92.8239L250.682 87.4159L248.964 88.4401ZM252.551 92.4678C251.409 93.12 250.165 93.6449 248.814 94.0403L249.376 95.9597C250.868 95.5231 252.258 94.9386 253.543 94.2042L252.551 92.4678ZM248.807 94.0422C247.499 94.4346 246.279 94.624 245.143 94.624V96.624C246.502 96.624 247.917 96.3974 249.382 95.9578L248.807 94.0422ZM266.813 94.064L266.334 94.9419L266.341 94.9455L266.813 94.064ZM262.445 89.748L261.568 90.228L261.568 90.228L262.445 89.748ZM267.437 72.848L267.915 73.7266L267.926 73.72L267.437 72.848ZM282.049 74.044L281.373 74.7812L281.38 74.787L281.386 74.7928L282.049 74.044ZM286.157 82.208L286.46 83.1611L287.292 82.8966L287.142 82.0359L286.157 82.208ZM268.477 87.824L267.551 88.2017L267.9 89.0566L268.78 88.7771L268.477 87.824ZM266.865 83.872L266.545 82.9245L265.537 83.2646L265.939 84.2497L266.865 83.872ZM279.657 79.556L280.066 80.4685L279.337 78.6085L279.657 79.556ZM278.149 80.232L277.193 80.5261L277.526 81.6072L278.558 81.1445L278.149 80.232ZM276.641 77.892L275.934 78.5991L275.951 78.6168L275.97 78.6335L276.641 77.892ZM270.609 77.632L271.129 78.4863L271.139 78.48L270.609 77.632ZM268.737 79.764L267.836 79.3302L267.832 79.3375L267.829 79.3449L268.737 79.764ZM268.893 86.576L268.011 87.0482L268.015 87.055L268.019 87.0616L268.893 86.576ZM271.025 88.708L270.551 89.5885L270.551 89.5885L271.025 88.708ZM276.329 89.02L275.987 88.0802L275.98 88.0828L275.973 88.0855L276.329 89.02ZM278.565 87.928L279.424 87.4159L278.903 86.5425L278.039 87.0777L278.565 87.928ZM281.789 93.336L282.285 94.2042L283.169 93.6989L282.648 92.8239L281.789 93.336ZM277.837 95L277.556 94.0402L277.55 94.0422L277.837 95ZM273.885 94.624C271.235 94.624 269.048 94.1271 267.285 93.1825L266.341 94.9455C268.46 96.0809 270.989 96.624 273.885 96.624V94.624ZM267.292 93.1861C265.547 92.2343 264.232 90.9308 263.322 89.268L261.568 90.228C262.668 92.2398 264.266 93.8137 266.334 94.9419L267.292 93.1861ZM263.322 89.268C262.408 87.5976 261.937 85.6523 261.937 83.404H259.937C259.937 85.9397 260.471 88.2237 261.568 90.228L263.322 89.268ZM261.937 83.404C261.937 81.2977 262.476 79.4242 263.547 77.756L261.863 76.676C260.576 78.6825 259.937 80.9343 259.937 83.404H261.937ZM263.547 77.756C264.632 76.0647 266.082 74.7233 267.915 73.7265L266.959 71.9695C264.84 73.1221 263.136 74.6926 261.863 76.676L263.547 77.756ZM267.926 73.72C269.742 72.7005 271.773 72.184 274.041 72.184V70.184C271.455 70.184 269.083 70.7768 266.947 71.976L267.926 73.72ZM274.041 72.184C277.091 72.184 279.506 73.0696 281.373 74.7812L282.725 73.3068C280.432 71.2051 277.508 70.184 274.041 70.184V72.184ZM281.386 74.7928C283.288 76.4765 284.576 78.9685 285.172 82.3801L287.142 82.0359C286.49 78.3062 285.039 75.3555 282.712 73.2952L281.386 74.7928ZM285.854 81.2549L268.174 86.8709L268.78 88.7771L286.46 83.1611L285.854 81.2549ZM269.403 87.4463L267.791 83.4943L265.939 84.2497L267.551 88.2017L269.403 87.4463ZM267.185 84.8195L279.977 80.5035L279.337 78.6085L266.545 82.9245L267.185 84.8195ZM279.248 78.6435L277.74 79.3195L278.558 81.1445L280.066 80.4685L279.248 78.6435ZM279.105 79.9379C278.772 78.8573 278.168 77.9247 277.312 77.1505L275.97 78.6335C276.57 79.1766 276.971 79.8041 277.193 80.5261L279.105 79.9379ZM277.348 77.1849C276.397 76.2338 275.036 75.852 273.469 75.852V77.852C274.744 77.852 275.498 78.1636 275.934 78.5991L277.348 77.1849ZM273.469 75.852C272.225 75.852 271.085 76.1553 270.079 76.784L271.139 78.48C271.797 78.0687 272.563 77.852 273.469 77.852V75.852ZM270.089 76.7778C269.108 77.3747 268.361 78.2405 267.836 79.3302L269.638 80.1978C270.015 79.4155 270.515 78.86 271.129 78.4862L270.089 76.7778ZM267.829 79.3449C267.339 80.4069 267.113 81.6314 267.113 82.988H269.113C269.113 81.8486 269.303 80.9238 269.645 80.1831L267.829 79.3449ZM267.113 82.988C267.113 84.5276 267.394 85.8962 268.011 87.0482L269.774 86.1038C269.352 85.3145 269.113 84.2911 269.113 82.988H267.113ZM268.019 87.0616C268.627 88.1567 269.473 89.0082 270.551 89.5885L271.499 87.8275C270.774 87.4371 270.199 86.8673 269.767 86.0904L268.019 87.0616ZM270.551 89.5885C271.61 90.1587 272.78 90.436 274.041 90.436V88.436C273.083 88.436 272.243 88.2279 271.499 87.8275L270.551 89.5885ZM274.041 90.436C274.957 90.436 275.841 90.2762 276.685 89.9545L275.973 88.0855C275.361 88.3185 274.72 88.436 274.041 88.436V90.436ZM276.671 89.9598C277.501 89.6578 278.308 89.263 279.091 88.7783L278.039 87.0777C277.366 87.4943 276.682 87.8276 275.987 88.0802L276.671 89.9598ZM277.706 88.4401L280.93 93.8481L282.648 92.8239L279.424 87.4159L277.706 88.4401ZM281.293 92.4678C280.151 93.12 278.907 93.6449 277.556 94.0403L278.118 95.9597C279.61 95.5231 281 94.9386 282.285 94.2042L281.293 92.4678ZM277.55 94.0422C276.242 94.4346 275.022 94.624 273.885 94.624V96.624C275.244 96.624 276.659 96.3974 278.124 95.9578L277.55 94.0422Z" fill="#FFEBCD" fill-opacity="0.5" mask="url(#path-2-outside-1_92_15)"/>
<defs>
<clipPath id="clip0_92_15">
<rect width="86" height="76" fill="white" transform="translate(0 13)"/>
</clipPath>
</defs>
</svg>
