<!DOCTYPE svg PUBLIC "-//W3C//DTD SVG 1.1//EN" "http://www.w3.org/Graphics/SVG/1.1/DTD/svg11.dtd">
<!-- Uploaded to: SVG Repo, www.svgrepo.com, Transformed by: SVG Repo Mixer Tools -->
<svg width="156px" height="156px" viewBox="-2.4 -2.4 28.80 28.80" fill="none" xmlns="http://www.w3.org/2000/svg" transform="rotate(0)matrix(1, 0, 0, 1, 0, 0)">
<g id="SVGRepo_bgCarrier" stroke-width="0">
<path transform="translate(-2.4, -2.4), scale(0.8999999999999999)" d="M16,28.03974272807439C17.852063910889356,28.03979700082185,19.90946621509318,29.29495130998343,21.48800901167424,28.326270055738078C23.132127805440284,27.317347739078002,22.491502987565905,24.42018126326348,23.951961899908255,23.159978654779728C25.7073625137607,21.645276382900768,29.190314849345558,22.666657279562436,30.364166156246057,20.667200504126463C31.420565635385454,18.867803013391853,29.54064021903311,16.641055774624324,28.954860129570108,14.638389333107733C28.445728475073558,12.897768753618998,27.690561842825474,11.301091969973742,27.120957898262503,9.579311963791652C26.428451450855405,7.486026327905542,27.125477345179554,4.4158979580950675,25.211130399391635,3.3219666511749395C23.189066591053354,2.166481795413352,20.728224532061013,4.287777410055788,18.421429930112588,4.608067842800034C16.823929729211972,4.829875207106896,15.231341278193677,4.628512323673632,13.64650463506237,4.927674843596435C12.038205911592943,5.2312661954162065,10.584957119475579,5.926328503861286,9.013533834714885,6.383954282117994C6.815374756578699,7.024096418625351,3.8193487113751097,6.339939796843217,2.463110989843969,8.18447348599632C1.172918210444547,9.939183600103453,2.368475458874709,12.530050441637147,2.951498725050376,14.628547252133206C3.4417399347454594,16.393090237985316,4.89561878828556,17.686624762424394,5.57552984457557,19.3871156762895C6.206361786318624,20.96485731644366,5.98733158269159,22.788382809331715,6.808784312565949,24.275807776979363C7.702931671588492,25.894862724632596,8.800542125158504,27.62502686417414,10.512134190008387,28.325948419492782C12.22600201912304,29.027801932992794,14.147989933304594,28.039688456904777,16,28.03974272807439" fill="#d5caa5" strokewidth="0"/>
</g>
<g id="SVGRepo_tracerCarrier" stroke-linecap="round" stroke-linejoin="round" stroke="#CCCCCC" stroke-width="0.288"> <path opacity="0.4" d="M12.1207 12.78C12.0507 12.77 11.9607 12.77 11.8807 12.78C10.1207 12.72 8.7207 11.28 8.7207 9.50998C8.7207 7.69998 10.1807 6.22998 12.0007 6.22998C13.8107 6.22998 15.2807 7.69998 15.2807 9.50998C15.2707 11.28 13.8807 12.72 12.1207 12.78Z" stroke="#3E2723" stroke-width="1.5" stroke-linecap="round" stroke-linejoin="round"/> <path opacity="0.34" d="M18.7398 19.3801C16.9598 21.0101 14.5998 22.0001 11.9998 22.0001C9.39977 22.0001 7.03977 21.0101 5.25977 19.3801C5.35977 18.4401 5.95977 17.5201 7.02977 16.8001C9.76977 14.9801 14.2498 14.9801 16.9698 16.8001C18.0398 17.5201 18.6398 18.4401 18.7398 19.3801Z" stroke="#3E2723" stroke-width="1.5" stroke-linecap="round" stroke-linejoin="round"/> <path d="M12 22C17.5228 22 22 17.5228 22 12C22 6.47715 17.5228 2 12 2C6.47715 2 2 6.47715 2 12C2 17.5228 6.47715 22 12 22Z" stroke="#3E2723" stroke-width="1.5" stroke-linecap="round" stroke-linejoin="round"/> </g>
<g id="SVGRepo_iconCarrier"> <path opacity="0.4" d="M12.1207 12.78C12.0507 12.77 11.9607 12.77 11.8807 12.78C10.1207 12.72 8.7207 11.28 8.7207 9.50998C8.7207 7.69998 10.1807 6.22998 12.0007 6.22998C13.8107 6.22998 15.2807 7.69998 15.2807 9.50998C15.2707 11.28 13.8807 12.72 12.1207 12.78Z" stroke="#3E2723" stroke-width="1.5" stroke-linecap="round" stroke-linejoin="round"/> <path opacity="0.34" d="M18.7398 19.3801C16.9598 21.0101 14.5998 22.0001 11.9998 22.0001C9.39977 22.0001 7.03977 21.0101 5.25977 19.3801C5.35977 18.4401 5.95977 17.5201 7.02977 16.8001C9.76977 14.9801 14.2498 14.9801 16.9698 16.8001C18.0398 17.5201 18.6398 18.4401 18.7398 19.3801Z" stroke="#3E2723" stroke-width="1.5" stroke-linecap="round" stroke-linejoin="round"/> <path d="M12 22C17.5228 22 22 17.5228 22 12C22 6.47715 17.5228 2 12 2C6.47715 2 2 6.47715 2 12C2 17.5228 6.47715 22 12 22Z" stroke="#3E2723" stroke-width="1.5" stroke-linecap="round" stroke-linejoin="round"/> </g>
</svg>