<svg width="56" height="53" viewBox="0 0 56 53" fill="none" xmlns="http://www.w3.org/2000/svg">
<path d="M52.2987 35.6067C52.2987 36.8448 52.0009 37.9423 51.4052 38.899C50.8691 39.7995 50.1543 40.5592 49.2608 41.1783C48.3673 41.7974 47.3845 42.2758 46.3123 42.6134C45.2996 42.8948 44.3466 43.0355 43.4531 43.0355C42.083 43.0355 40.6832 42.7541 39.2536 42.1913C37.8836 41.5723 36.6327 40.6999 35.5009 39.5744C34.3691 38.4488 33.4459 37.0981 32.7311 35.5222C32.0163 33.9464 31.6589 32.2018 31.6589 30.2883C31.6589 26.9678 32.3141 24.1257 33.6246 21.762C34.9946 19.3982 36.6029 17.4285 38.4495 15.8526C40.3556 14.2205 42.2915 12.9542 44.2572 12.0538C46.2825 11.097 47.9503 10.4217 49.2608 10.0277V12.7291C48.0695 13.4045 46.7888 14.1361 45.4188 14.924C44.1083 15.7119 42.8872 16.6405 41.7554 17.7098C40.6832 18.7792 39.7897 19.9892 39.0749 21.3399C38.3601 22.6906 38.0027 24.2101 38.0027 25.8985C38.0027 26.7427 38.0921 27.418 38.2708 27.9245C38.4495 28.4311 38.6579 28.825 38.8962 29.1064C39.194 29.3878 39.4621 29.5848 39.7004 29.6973C39.9982 29.8099 40.2365 29.8662 40.4152 29.8662C41.0704 29.8662 41.8745 29.6973 42.8276 29.3597C43.7807 28.9657 44.6742 28.7687 45.5081 28.7687C46.2825 28.7687 47.0568 28.9376 47.8312 29.2752C48.6651 29.5566 49.4097 30.0069 50.0649 30.6259C50.7202 31.1887 51.2563 31.8922 51.6733 32.7364C52.0902 33.5806 52.2987 34.5374 52.2987 35.6067ZM24.4327 35.4378C24.4327 36.676 24.1348 37.7734 23.5392 38.7302C23.0031 39.6869 22.2883 40.4748 21.3948 41.0939C20.5013 41.6567 19.5184 42.1069 18.4462 42.4446C17.4336 42.726 16.4507 42.8667 15.4977 42.8667C14.1277 42.8667 12.7576 42.5853 11.3876 42.0225C10.0176 41.4034 8.76665 40.5592 7.63489 39.4899C6.50312 38.3643 5.57984 37.0136 4.86504 35.4378C4.2098 33.862 3.88219 32.1173 3.88219 30.2039C3.88219 26.8834 4.53742 24.0413 5.84789 21.6775C7.21792 19.2575 8.82622 17.2596 10.6728 15.6838C12.5789 14.0517 14.5148 12.7854 16.4805 11.8849C18.4462 10.9282 20.0843 10.2528 21.3948 9.85889V12.6447C20.2034 13.3201 18.9228 14.0517 17.5527 14.8396C16.2423 15.6275 15.0211 16.5561 13.8894 17.6254C12.8172 18.6947 11.8939 19.9047 11.1195 21.2554C10.4047 22.5499 10.0473 24.0694 10.0473 25.8141C10.0473 27.3899 10.375 28.4311 11.0302 28.9376C11.745 29.4441 12.2811 29.6973 12.6385 29.6973C13.2341 29.6973 14.0085 29.5285 14.9616 29.1908C15.9146 28.8531 16.8081 28.6843 17.6421 28.6843C18.4164 28.6843 19.1908 28.8531 19.9652 29.1908C20.7991 29.4722 21.5437 29.9225 22.1989 30.5415C22.8542 31.1043 23.3903 31.8078 23.8072 32.652C24.2242 33.4399 24.4327 34.3685 24.4327 35.4378Z" fill="#A28049"/>
</svg>
