<svg width="293" height="88" viewBox="0 0 293 88" fill="none" xmlns="http://www.w3.org/2000/svg">
<path d="M106.584 14.352L106.376 16.276L107.52 14.82L120 0.727997H129.776L113.968 17.888L129.828 39H120.26L108.456 22.672L106.584 24.544V39H98.94V0.727997H106.584V14.352ZM142.91 39.624C140.795 39.624 138.871 39.208 137.138 38.376C135.439 37.5093 134.087 36.192 133.082 34.424C132.076 32.656 131.574 30.4027 131.574 27.664C131.574 25.0987 132.094 22.88 133.134 21.008C134.174 19.136 135.543 17.6973 137.242 16.692C138.94 15.652 140.743 15.132 142.65 15.132C144.903 15.132 146.602 15.5133 147.746 16.276C148.924 17.004 149.895 17.8187 150.658 18.72L150.346 19.604L151.022 16.276H157.782V39H150.502V34.06L151.074 35.62C151.004 35.62 150.796 35.828 150.45 36.244C150.103 36.6253 149.583 37.0933 148.89 37.648C148.231 38.168 147.399 38.6187 146.394 39C145.423 39.416 144.262 39.624 142.91 39.624ZM144.99 33.696C145.856 33.696 146.636 33.5747 147.33 33.332C148.023 33.0547 148.63 32.6733 149.15 32.188C149.67 31.668 150.12 31.0267 150.502 30.264V24.7C150.224 23.9373 149.808 23.296 149.254 22.776C148.699 22.2213 148.04 21.8053 147.278 21.528C146.515 21.216 145.666 21.06 144.73 21.06C143.69 21.06 142.719 21.3373 141.818 21.892C140.951 22.412 140.258 23.14 139.738 24.076C139.218 25.012 138.958 26.0867 138.958 27.3C138.958 28.5133 139.235 29.6053 139.79 30.576C140.344 31.5467 141.072 32.3093 141.974 32.864C142.91 33.4187 143.915 33.696 144.99 33.696ZM174.851 39.624C172.736 39.624 170.812 39.208 169.079 38.376C167.38 37.5093 166.028 36.192 165.023 34.424C164.018 32.656 163.515 30.4027 163.515 27.664C163.515 25.0987 164.035 22.88 165.075 21.008C166.115 19.136 167.484 17.6973 169.183 16.692C170.882 15.652 172.684 15.132 174.591 15.132C176.844 15.132 178.543 15.5133 179.687 16.276C180.866 17.004 181.836 17.8187 182.599 18.72L182.287 19.604L182.963 16.276H189.723V39H182.443V34.06L183.015 35.62C182.946 35.62 182.738 35.828 182.391 36.244C182.044 36.6253 181.524 37.0933 180.831 37.648C180.172 38.168 179.34 38.6187 178.335 39C177.364 39.416 176.203 39.624 174.851 39.624ZM176.931 33.696C177.798 33.696 178.578 33.5747 179.271 33.332C179.964 33.0547 180.571 32.6733 181.091 32.188C181.611 31.668 182.062 31.0267 182.443 30.264V24.7C182.166 23.9373 181.75 23.296 181.195 22.776C180.64 22.2213 179.982 21.8053 179.219 21.528C178.456 21.216 177.607 21.06 176.671 21.06C175.631 21.06 174.66 21.3373 173.759 21.892C172.892 22.412 172.199 23.14 171.679 24.076C171.159 25.012 170.899 26.0867 170.899 27.3C170.899 28.5133 171.176 29.6053 171.731 30.576C172.286 31.5467 173.014 32.3093 173.915 32.864C174.851 33.4187 175.856 33.696 176.931 33.696ZM211.472 39.624C210.12 39.624 208.786 39.3813 207.468 38.896C206.186 38.376 205.111 37.648 204.244 36.712L204.452 34.58V49.92H197.224V15.756H203.464L204.504 20.176L203.932 18.616C205.111 17.6107 206.428 16.7787 207.884 16.12C209.34 15.4613 211.022 15.132 212.928 15.132C215.043 15.132 216.932 15.6347 218.596 16.64C220.26 17.6107 221.56 19.032 222.496 20.904C223.467 22.7413 223.952 24.96 223.952 27.56C223.952 30.1253 223.415 32.3093 222.34 34.112C221.266 35.9147 219.792 37.284 217.92 38.22C216.048 39.156 213.899 39.624 211.472 39.624ZM210.016 33.904C211.195 33.904 212.27 33.644 213.24 33.124C214.246 32.604 215.043 31.876 215.632 30.94C216.256 29.9693 216.568 28.8773 216.568 27.664C216.568 26.3813 216.291 25.272 215.736 24.336C215.216 23.3653 214.488 22.62 213.552 22.1C212.651 21.5453 211.646 21.268 210.536 21.268C209.566 21.268 208.699 21.4067 207.936 21.684C207.208 21.9267 206.55 22.308 205.96 22.828C205.406 23.3133 204.92 23.9373 204.504 24.7V30.264C204.782 30.992 205.18 31.6333 205.7 32.188C206.22 32.7427 206.844 33.176 207.572 33.488C208.335 33.7653 209.15 33.904 210.016 33.904ZM229.674 16.276H236.954V39H229.674V16.276ZM229.518 8.216C229.518 7.14133 229.934 6.25733 230.766 5.564C231.632 4.87066 232.551 4.524 233.522 4.524C234.492 4.524 235.376 4.87066 236.174 5.564C237.006 6.25733 237.422 7.14133 237.422 8.216C237.422 9.29066 237.006 10.1747 236.174 10.868C235.376 11.5267 234.492 11.856 233.522 11.856C232.551 11.856 231.632 11.5267 230.766 10.868C229.934 10.1747 229.518 9.29066 229.518 8.216Z" fill="#4F250E"/>
<path d="M146.172 43.728C150.159 43.728 153.331 44.5427 155.688 46.172C158.045 47.7667 159.224 50.1587 159.224 53.348C159.224 55.7053 158.635 57.6813 157.456 59.276C156.312 60.836 154.735 62.0147 152.724 62.812C150.748 63.5747 148.477 63.956 145.912 63.956L144.716 59.9C147.871 59.9 150.661 60.3333 153.088 61.2C155.549 62.0667 157.491 63.3147 158.912 64.944C160.333 66.5387 161.044 68.4627 161.044 70.716C161.044 72.796 160.663 74.564 159.9 76.02C159.172 77.4413 158.167 78.6027 156.884 79.504C155.636 80.3707 154.215 81.012 152.62 81.428C151.025 81.8093 149.379 82 147.68 82H134.94V43.728H146.172ZM147.056 59.38C148.547 59.38 149.639 58.9293 150.332 58.028C151.06 57.1267 151.424 56.104 151.424 54.96C151.424 53.6427 150.973 52.6547 150.072 51.996C149.205 51.3373 148.027 51.008 146.536 51.008H142.48V59.38H147.056ZM147.316 74.98C148.425 74.98 149.431 74.8413 150.332 74.564C151.233 74.252 151.944 73.784 152.464 73.16C152.984 72.5013 153.244 71.6867 153.244 70.716C153.244 69.6067 152.932 68.7747 152.308 68.22C151.684 67.6307 150.869 67.232 149.864 67.024C148.893 66.7813 147.871 66.66 146.796 66.66H142.48V74.98H147.316ZM165.644 70.352C165.644 68.0293 166.181 65.9493 167.256 64.112C168.365 62.2747 169.908 60.836 171.884 59.796C173.86 58.7213 176.131 58.184 178.696 58.184C181.296 58.184 183.549 58.7213 185.456 59.796C187.363 60.836 188.819 62.2747 189.824 64.112C190.864 65.9493 191.384 68.0293 191.384 70.352C191.384 72.6747 190.864 74.772 189.824 76.644C188.819 78.4813 187.363 79.9373 185.456 81.012C183.549 82.0867 181.261 82.624 178.592 82.624C176.096 82.624 173.86 82.1387 171.884 81.168C169.943 80.1973 168.417 78.7933 167.308 76.956C166.199 75.1187 165.644 72.9173 165.644 70.352ZM172.976 70.404C172.976 71.5827 173.219 72.6573 173.704 73.628C174.189 74.564 174.848 75.3093 175.68 75.864C176.512 76.4187 177.448 76.696 178.488 76.696C179.632 76.696 180.62 76.4187 181.452 75.864C182.284 75.3093 182.925 74.564 183.376 73.628C183.827 72.6573 184.052 71.5827 184.052 70.404C184.052 69.1907 183.827 68.116 183.376 67.18C182.925 66.244 182.284 65.4987 181.452 64.944C180.62 64.3893 179.632 64.112 178.488 64.112C177.448 64.112 176.512 64.3893 175.68 64.944C174.848 65.4987 174.189 66.244 173.704 67.18C173.219 68.116 172.976 69.1907 172.976 70.404ZM197.119 82V40.972H204.243V63.852L204.191 62.968C204.988 61.5467 206.115 60.4027 207.571 59.536C209.027 58.6347 210.812 58.184 212.927 58.184C215.076 58.184 216.862 58.8253 218.283 60.108C219.739 61.356 220.484 62.9853 220.519 64.996V82H213.239V67.7C213.204 66.6947 212.927 65.8973 212.407 65.308C211.922 64.684 211.09 64.372 209.911 64.372C208.802 64.372 207.831 64.736 206.999 65.464C206.167 66.192 205.526 67.18 205.075 68.428C204.624 69.676 204.399 71.1147 204.399 72.744V82H197.119ZM234.598 59.276L235.17 63.332L235.066 62.968C235.863 61.5467 236.99 60.4027 238.446 59.536C239.902 58.6347 241.687 58.184 243.802 58.184C245.951 58.184 247.737 58.8253 249.158 60.108C250.614 61.356 251.359 62.9853 251.394 64.996V82H244.114V67.7C244.079 66.6947 243.802 65.8973 243.282 65.308C242.797 64.684 241.965 64.372 240.786 64.372C239.677 64.372 238.706 64.736 237.874 65.464C237.042 66.192 236.401 67.18 235.95 68.428C235.499 69.676 235.274 71.1147 235.274 72.744V82H227.994V59.276H234.598ZM270.049 82.624C267.276 82.624 264.918 82.104 262.977 81.064C261.07 80.024 259.614 78.5853 258.609 76.748C257.604 74.9107 257.101 72.796 257.101 70.404C257.101 68.116 257.69 66.0533 258.869 64.216C260.048 62.3787 261.625 60.9227 263.601 59.848C265.577 58.7387 267.778 58.184 270.205 58.184C273.464 58.184 276.133 59.1373 278.213 61.044C280.328 62.916 281.697 65.6373 282.321 69.208L264.641 74.824L263.029 70.872L275.821 66.556L274.313 67.232C274.036 66.3307 273.533 65.5507 272.805 64.892C272.112 64.1987 271.054 63.852 269.633 63.852C268.558 63.852 267.605 64.112 266.773 64.632C265.976 65.1173 265.352 65.828 264.901 66.764C264.485 67.6653 264.277 68.74 264.277 69.988C264.277 71.4093 264.537 72.6053 265.057 73.576C265.577 74.512 266.288 75.2227 267.189 75.708C268.09 76.1933 269.096 76.436 270.205 76.436C271.002 76.436 271.765 76.2973 272.493 76.02C273.256 75.7427 274.001 75.3787 274.729 74.928L277.953 80.336C276.74 81.0293 275.422 81.584 274.001 82C272.614 82.416 271.297 82.624 270.049 82.624Z" fill="#4F250E"/>
<g clip-path="url(#clip0_64_16)">
<path d="M52.2143 32.5357H15.3571C11.9646 32.5357 9.21429 34.9662 9.21429 37.9643V63.75C9.21429 69.7464 14.7148 74.6071 21.5 74.6071H46.0714C52.8566 74.6071 58.3571 69.7464 58.3571 63.75V37.9643C58.3571 34.9662 55.6069 32.5357 52.2143 32.5357Z" fill="#FDDC5C"/>
<path fill-rule="evenodd" clip-rule="evenodd" d="M20.9121 24.1794C18.9252 22.7747 18.6031 20.2126 20.1926 18.4568C20.8133 17.7711 21.0204 17.3689 21.0844 17.1907C21.0194 17.0853 20.8089 16.7817 20.1506 16.0322L20.0166 15.8806C19.2706 15.0398 17.7653 13.3433 17.3672 11.1036C16.8858 8.39573 18.0679 5.87522 20.1926 3.52818C21.7821 1.77233 24.6813 1.48765 26.6682 2.89233C28.6551 4.29701 28.9772 6.85912 27.3877 8.61498C26.767 9.30061 26.5599 9.70287 26.4959 9.88098C26.5609 9.98641 26.7714 10.29 27.4298 11.0395L27.5637 11.1911C28.3098 12.0319 29.815 13.7284 30.2132 15.9681C30.6945 18.676 29.5124 21.1965 27.3877 23.5436C25.7982 25.2994 22.899 25.5841 20.9121 24.1794ZM26.4709 9.99118C26.4709 9.99118 26.4683 9.97332 26.479 9.93396C26.479 9.97093 26.4709 9.99118 26.4709 9.99118ZM21.1094 17.0805C21.1094 17.0805 21.112 17.0984 21.1013 17.1378C21.1013 17.1008 21.1094 17.0805 21.1094 17.0805ZM15.3571 29.143C9.84417 29.143 5.375 33.0925 5.375 37.9644V63.75C5.375 71.6203 12.5944 78 21.5 78H46.0714C53.654 78 60.0142 73.3749 61.7363 67.1429H62.9643C73.1424 67.1429 81.3929 59.8517 81.3929 50.8573C81.3929 41.8629 73.1424 34.5716 62.9643 34.5716H61.4316C59.9271 31.3837 56.3668 29.143 52.2143 29.143H15.3571ZM62.1964 42.7144V59H62.9643C68.053 59 72.1786 55.3544 72.1786 50.8573C72.1786 46.3601 68.053 42.7144 62.9643 42.7144H62.1964ZM13.0536 37.9644C13.0536 36.8401 14.0849 35.9287 15.3571 35.9287H52.2143C53.4865 35.9287 54.5179 36.8401 54.5179 37.9644V63.75C54.5179 67.8725 50.7363 71.2143 46.0714 71.2143H21.5C16.8352 71.2143 13.0536 67.8725 13.0536 63.75V37.9644ZM40.1568 18.4568C38.5674 20.2126 38.8895 22.7747 40.8764 24.1794C42.8633 25.5841 45.7625 25.2994 47.352 23.5436C49.4767 21.1965 50.6588 18.676 50.1774 15.9681C49.7793 13.7284 48.2741 12.0319 47.528 11.1911L47.3941 11.0395C46.7357 10.29 46.5251 9.98641 46.4602 9.88098C46.5242 9.70287 46.7313 9.30061 47.352 8.61498C48.9415 6.85912 48.6194 4.29701 46.6325 2.89233C44.6456 1.48765 41.7464 1.77233 40.1568 3.52818C38.0322 5.87522 36.8501 8.39573 37.3315 11.1036C37.7296 13.3433 39.2349 15.0398 39.9809 15.8806L40.1149 16.0322C40.7732 16.7817 40.9837 17.0853 41.0487 17.1907C40.9847 17.3689 40.7776 17.7711 40.1568 18.4568ZM46.4352 9.99118C46.4352 9.99118 46.4326 9.97332 46.4433 9.93396C46.4433 9.97093 46.4352 9.99118 46.4352 9.99118ZM41.0737 17.0805C41.0737 17.0805 41.0763 17.0984 41.0656 17.1378C41.0656 17.1008 41.0737 17.0805 41.0737 17.0805Z" fill="#3F2305"/>
</g>
<defs>
<clipPath id="clip0_64_16">
<rect width="86" height="76" fill="white" transform="translate(0 2)"/>
</clipPath>
</defs>
</svg>
